<svg width="45" height="46" viewBox="0 0 45 46" fill="none" xmlns="http://www.w3.org/2000/svg">
<path d="M22.4 0.392822C10.0296 0.392822 0 10.5478 0 23.0728C0 33.7003 7.22773 42.5927 16.9717 45.0535C16.8672 44.7473 16.8 44.392 16.8 43.9517V40.0753C15.8909 40.0753 14.3677 40.0753 13.9851 40.0753C12.4525 40.0753 11.0899 39.4081 10.4291 38.1683C9.69547 36.7904 9.56853 34.6831 7.7504 33.3941C7.21093 32.9651 7.6216 32.4756 8.2432 32.5417C9.3912 32.8706 10.3432 33.6682 11.2392 34.8513C12.1315 36.0363 12.5515 36.3047 14.2184 36.3047C15.0267 36.3047 16.2363 36.2575 17.3749 36.076C17.9872 34.5017 19.0456 33.052 20.3392 32.3678C12.88 31.5911 9.32027 27.8337 9.32027 22.7326C9.32027 20.5364 10.2443 18.4121 11.8141 16.6223C11.2989 14.8457 10.6512 11.2225 12.012 9.84282C15.3683 9.84282 17.3973 12.0466 17.8845 12.6419C19.5571 12.0617 21.3939 11.7328 23.324 11.7328C25.2579 11.7328 27.1021 12.0617 28.7784 12.6457C29.26 12.0541 31.2909 9.84282 34.6547 9.84282C36.0211 11.2244 35.3659 14.8627 34.8451 16.6355C36.4056 18.4215 37.324 20.5402 37.324 22.7326C37.324 27.83 33.7699 31.5854 26.3219 32.366C28.3715 33.4489 29.8667 36.4918 29.8667 38.7844V43.9517C29.8667 44.1482 29.8237 44.29 29.8013 44.4582C38.5299 41.3605 44.8 32.9689 44.8 23.0728C44.8 10.5478 34.7704 0.392822 22.4 0.392822Z" fill="white"/>
</svg>
