<?xml version="1.0" encoding="utf-8"?>
<!-- Generator: Adobe Illustrator 24.2.1, SVG Export Plug-In . SVG Version: 6.00 Build 0)  -->
<svg version="1.1" id="Layer_1" xmlns="http://www.w3.org/2000/svg" xmlns:xlink="http://www.w3.org/1999/xlink" x="0px" y="0px"
	 viewBox="0 0 4000 4000" style="enable-background:new 0 0 4000 4000;" xml:space="preserve">
<style type="text/css">
	.st0{fill:#EA85BD;}
	.st1{fill:#390176;}
	.st2{fill:#FF52A5;}
	.st3{opacity:0.25;}
	.st4{fill:#FFFFFF;}
	.st5{opacity:0.55;}
	.st6{opacity:0.3;}
</style>
<g>
	<g>
		<g>
			<g>
				<path class="st0" d="M3018.68,1988.88c0,0-14.69,150.91-130.14,252.33c0,0-31.82,134.99-176.27,157.41
					c0,0-7.11,147.78-169.61,141.41c0,0-44.03,1.18-98.84,48.59c-75.81,65.6-174.93,98.46-274.41,85.81
					c-43.16-5.46-91.15-17.64-142.57-40.18c-27.2-11.93-58.4-9.59-84.14,5.17c-47.58,27.29-132.95,62.85-230.52,41.4
					c0,0-178.48,62-280.7-42.46c-160.14-41.79-248.4-119.25-268.57-230.57c-2.51-13.8-3.99-28.14-4.39-42.94
					c-126.47-22.96-183.31-97.58-170.41-223.9c-41.13-94.23-32.4-173.9,44.27-230.2c-16.8-56.54,2.63-104.5,73.4-140.2
					c-26.52-84.38,1.04-149.71,92.78-179.98c18.11-72.72,51.81-130.4,133.89-141.27c25.15-78.25,77.53-131.38,154.61-161.73
					c36.17-62.06,87.61-106.92,175.61-110.77c47.27-99.1,124.23-146.59,247.23-113.78c69.55-49.85,157.52-45.74,226-10.97
					c71.28-5.84,133.47,6.72,177.1,56.87c110.23-4.48,212.51,15.79,297.67,89.94c0.21,0.13,0.36,0.3,0.57,0.48
					c0,0,3.49,1.08,9.7,3.29c2.09,0.76,4.17,1.51,6.26,2.32c11.54,4.41,28.59,11.59,48.39,21.82c0.1,0.06,0.21,0.13,0.32,0.19
					c47.36,24.6,110.23,67.09,150.64,132.71c0,0,120.21,83.86,120.08,186.4c0,0,88.49,66.88,77.73,214.39
					C3024.36,1760.47,3062.7,1862.13,3018.68,1988.88z"/>
			</g>
			<g>
				<path class="st1" d="M1595.33,2701.29c-54.78,0-118.08-12.93-165.15-60.68c-158.57-41.53-249.32-119.71-269.73-232.37
					c-2.42-13.36-3.89-27.24-4.37-41.3c-125.81-23.53-183.18-99.42-170.52-225.6c-43.28-99.62-28.5-177.52,43.93-231.58
					c-16.96-59.5,7.68-106.76,73.27-140.49c-26.63-87.31,6.59-151.37,93.7-180.64c15.01-59.61,44.02-128.92,134.09-141.6
					c24.98-76.31,77.05-130.63,154.78-161.47c42.21-72.01,98.09-107.38,175.73-111.19c51.65-107.17,132.89-144.49,248.34-114.06
					c63.82-45.17,150.62-49.31,226.99-10.8c80.13-6.42,138.26,12.18,177.7,56.87c126.76-4.91,221.57,23.86,298.22,90.61l0.16,0.13
					c1.17,0.37,4.4,1.42,9.31,3.17c2.11,0.77,4.22,1.53,6.32,2.35c10.85,4.15,28.11,11.32,48.63,21.93l0.44,0.26
					c46.28,24.04,110.16,66.7,151.23,133.12c7.92,5.69,119.94,87.93,120.72,186.94c9.75,8.03,87.64,76.9,77.76,215.25
					c2.89,8.18,36.27,107.98-5.76,229.3c-0.85,7.72-18.52,154.43-130.36,253.15c-2.97,11.19-39.12,135.81-176.17,158.2
					c-1.72,17.96-19.45,147.69-172.04,141.75c-0.26,0.01-43.72,1.81-97.11,47.98c-77.83,67.34-178.54,98.82-276.37,86.4
					c-47.72-6.03-95.91-19.61-143.25-40.36c-25.93-11.37-56.54-9.49-81.89,5.05c-53.21,30.51-136.53,62.49-231.64,41.82
					C1705.9,2685.52,1655.8,2701.29,1595.33,2701.29z M1837.43,1055.16c-76.52,0-133.31,40.58-172.5,122.71l-0.64,1.35l-1.5,0.07
					c-76.82,3.36-131.97,38.16-173.56,109.53l-0.43,0.75l-0.81,0.32c-77.23,30.41-128.75,84.3-153.15,160.17l-0.48,1.51l-1.57,0.21
					c-69.43,9.2-110.08,52.19-131.8,139.4l-0.33,1.34l-1.31,0.43c-86.99,28.7-118.52,89.86-91.18,176.85l0.64,2.03l-1.89,0.95
					c-66.07,33.33-89.67,78.23-72.13,137.25l0.5,1.69l-1.42,1.04c-71.66,52.63-86.27,129.07-43.45,227.19l0.26,0.6l-0.07,0.65
					c-12.68,124.18,43.96,198.6,168.36,221.19l2,0.36l0.05,2.03c0.39,14.49,1.86,28.82,4.35,42.57
					c20.05,110.73,109.79,187.65,266.73,228.6l0.67,0.18l0.48,0.5c99.97,102.15,276.32,42.46,278.1,41.85l0.67-0.23l0.69,0.15
					c93.82,20.63,176.18-10.97,228.75-41.12c26.71-15.32,59-17.31,86.39-5.3c46.89,20.56,94.63,34.01,141.87,39.98
					c96.45,12.26,195.71-18.81,272.47-85.22c54.86-47.45,98.58-49.15,100.41-49.2c158.24,6.3,166.88-133.1,167.18-139.04l0.1-2.03
					l2.01-0.31c141.04-21.89,173.91-154.17,174.22-155.51l0.18-0.78l0.6-0.53c113.33-99.58,129.15-249.2,129.3-250.7l0.13-0.58
					c43.19-124.35,6.09-225.7,5.71-226.7l-0.2-0.52l0.04-0.55c10.54-144.33-75.86-211.55-76.74-212.21l-0.99-0.75v-1.25
					c0.12-100.07-117.83-183.51-119.02-184.34l-0.7-0.74c-40.46-65.7-103.72-107.94-149.66-131.8l-0.43-0.25
					c-20.19-10.43-37.27-17.53-48.01-21.64c-2.08-0.81-4.15-1.56-6.22-2.31c-6.1-2.18-9.56-3.24-9.59-3.25l-1.06-0.59l-0.41-0.39
					c-75.87-66.06-169.93-94.43-295.93-89.33l-1.2,0.05l-0.79-0.91c-38.98-44.8-94.58-62.6-175.01-56.02l-0.71,0.06l-0.63-0.32
					c-75.23-38.19-160.83-34.07-223.41,10.77l-0.96,0.69l-1.14-0.31C1883.61,1058.6,1859.68,1055.16,1837.43,1055.16z"/>
			</g>
		</g>
		<g>
			<path class="st2" d="M1158.52,2364.85c-126.48-22.96-183.29-97.6-170.41-223.9c-41.14-94.23-32.4-173.92,44.27-230.2
				c-16.79-56.55,2.63-104.49,73.4-140.2c-26.51-84.39,1.04-149.68,92.78-179.98c18.11-72.74,51.81-130.39,133.89-141.27
				c25.15-78.27,77.55-131.38,154.61-161.73c36.16-62.09,87.64-106.94,175.61-110.77c47.3-99.11,124.22-146.6,247.23-113.78
				c69.55-49.85,157.5-45.75,226-10.97c71.29-5.82,133.5,6.73,177.1,56.87c110.44-4.51,212.96,15.88,298.24,90.43
				c0,0,143.3,43.41,215.32,160.35c0,0,120.21,83.84,120.05,186.36c0,0,88.49,66.88,77.73,214.39c0,0,38.35,101.67-5.69,228.44
				c0,0-14.68,150.89-130.1,252.32c0,0-31.82,134.99-176.27,157.41c0,0-7.12,147.78-169.61,141.41c0,0-44.07,1.18-98.86,48.59
				c-75.81,65.6-174.95,98.47-274.4,85.83c-43.2-5.49-91.17-17.66-142.59-40.2c-27.19-11.92-58.41-9.61-84.16,5.18
				c-47.56,27.3-132.93,62.84-230.5,41.39c0,0-178.46,62.04-280.68-42.46C1251.5,2591.38,1162.26,2499.35,1158.52,2364.85z"/>
			<path class="st1" d="M1595.32,2701.29c-54.78,0-118.06-12.94-165.12-60.7c-177.28-46.42-269.47-138.48-274.11-273.65
				c-125.79-23.52-183.17-99.41-170.52-225.59c-43.3-99.63-28.52-177.54,43.93-231.58c-16.94-59.49,7.7-106.75,73.27-140.49
				c-26.61-87.29,6.61-151.35,93.7-180.64c15.01-59.6,44.02-128.92,134.09-141.6c24.96-76.3,77.03-130.62,154.78-161.47
				c42.19-72.03,98.08-107.4,175.73-111.19c51.67-107.16,132.89-144.49,248.34-114.06c63.82-45.17,150.63-49.31,226.99-10.8
				c80.13-6.41,138.29,12.2,177.7,56.87c126.85-4.95,221.7,23.88,298.4,90.74c9.62,3.06,146.35,48.31,215.93,160.84
				c7.92,5.68,119.94,87.91,120.68,186.9c9.75,8.03,87.65,76.9,77.76,215.24c2.9,8.18,36.29,107.99-5.76,229.34
				c-0.85,7.72-18.5,154.41-130.33,253.13c-2.97,11.19-39.12,135.81-176.16,158.2c-1.71,17.97-19.57,147.8-172.04,141.75
				c-0.26,0.01-43.76,1.81-97.12,47.99c-77.82,67.35-178.54,98.86-276.35,86.42c-47.77-6.07-95.98-19.66-143.28-40.4
				c-25.95-11.38-56.57-9.49-81.9,5.05c-43.53,24.99-131.4,63.58-231.6,41.81C1705.91,2685.51,1655.8,2701.29,1595.32,2701.29z
				 M1837.43,1055.16c-76.51,0-133.3,40.58-172.5,122.71l-0.64,1.35l-1.5,0.07c-76.84,3.34-131.99,38.14-173.56,109.53l-0.43,0.75
				l-0.81,0.32c-77.25,30.42-128.78,84.31-153.15,160.17l-0.48,1.51l-1.57,0.21c-69.44,9.2-110.08,52.2-131.8,139.4l-0.33,1.34
				l-1.31,0.43c-86.98,28.73-118.51,89.88-91.18,176.85l0.64,2.03l-1.89,0.95c-66.05,33.33-89.65,78.23-72.13,137.25l0.5,1.68
				l-1.42,1.04c-71.67,52.62-86.29,129.06-43.45,227.19l0.26,0.6l-0.07,0.65c-12.66,124.19,43.98,198.61,168.36,221.19l2,0.36
				l0.06,2.03c3.72,133.95,94.93,225.18,271.1,271.15l0.67,0.18l0.48,0.5c99.93,102.15,276.31,42.46,278.08,41.85l0.67-0.23
				l0.69,0.15c98.83,21.73,185.72-16.43,228.72-41.11c26.7-15.33,59.01-17.31,86.41-5.3c46.86,20.54,94.6,34.01,141.9,40.01
				c96.36,12.25,195.69-18.82,272.44-85.24c54.83-47.45,98.59-49.15,100.42-49.2c158.34,6.27,167.11-137.58,167.18-139.03l0.1-2.04
				l2.01-0.31c141.04-21.88,173.9-154.17,174.22-155.51l0.18-0.78l0.6-0.53c113.32-99.58,129.12-249.18,129.26-250.68l0.13-0.58
				c43.21-124.39,6.09-225.73,5.71-226.74l-0.2-0.52l0.04-0.55c10.54-144.33-75.87-211.55-76.74-212.21l-0.99-0.75v-1.25
				c0.16-100.01-117.79-183.47-118.98-184.3l-0.7-0.74c-70.71-114.81-212.5-158.84-213.92-159.27l-0.92-0.51
				c-75.99-66.42-170.24-94.99-296.49-89.81l-1.2,0.05l-0.79-0.91c-38.96-44.79-94.58-62.58-175.01-56.02l-0.71,0.06l-0.63-0.32
				c-75.22-38.2-160.83-34.08-223.41,10.77l-0.96,0.69l-1.14-0.31C1883.62,1058.6,1859.69,1055.16,1837.43,1055.16z"/>
		</g>
		<g class="st3">
			<path class="st4" d="M1977.43,1459.06c-3.56,27.02-27.72,49.88-54.9,51.93c-27.18,2.06-54.5-16.9-62.09-43.08
				c16.33-4.2,35.23,8.15,49.67-0.56c19.55-11.78,16.52-53.78,37.69-60.53C1970.04,1399.73,1979.38,1444.23,1977.43,1459.06z"/>
		</g>
		<g class="st5">
			<path class="st4" d="M1188.77,2400.51l-30.04-38.39c0,0-1.13-74.07,39.17-141.6c9.7-16.21,12.81-35.48,8.99-53.99
				c-7.41-36.19-12.5-98.85,24.08-147.09c10.15-13.43,17.42-28.77,20.12-45.38c6.2-37.56,25.77-104.73,87.37-132.26
				c22.77-10.2,39.21-30.75,42.44-55.51c3.99-30.63,18.74-70.15,64.22-95c20.99-11.43,36.16-31.09,42.99-53.99
				c11.62-38.86,41.15-96.47,115.77-126.28c22.57-9.01,42.15-24.33,55.07-44.92c24.98-39.7,80.75-103.19,188.77-122.55
				c23.49-4.22,44.8-16.23,59.77-34.74c33.08-40.81,107.73-107.1,235.47-89.64c19.9,2.72,40.17-0.31,58.22-9.04
				c25.74-12.46,68.76-27,120.62-19.59c18.86,2.69,38.06,0.86,56.17-5.07c40.07-13.17,122.15-28.49,232.88,10.68
				c3.37,1.18,6.8,2.42,10.27,3.77c2.09,0.76,4.17,1.51,6.26,2.32c15.59,6.19,31.76,13.41,48.39,21.82c0.1,0.06,0.21,0.12,0.32,0.19
				c11.64,6.07,24.25,13.19,37.16,21.44l-13.47,13.79c-140.49-69.41-244.87-51.05-291.75-35.63c-18.12,5.93-37.31,7.77-56.18,5.07
				c-51.8-7.41-94.88,7.14-120.56,19.6c-18.05,8.73-38.37,11.75-58.22,9.04c-127.75-17.45-202.45,48.83-235.53,89.64
				c-14.97,18.52-36.28,30.53-59.71,34.69c-108.08,19.35-163.79,82.85-188.78,122.6c-12.98,20.58-32.5,35.86-55.13,44.92
				c-74.62,29.82-104.09,87.37-115.77,126.28c-6.83,22.84-22,42.55-42.99,53.98c-45.48,24.86-60.17,64.38-64.22,94.95
				c-3.23,24.76-19.62,45.36-42.44,55.51c-61.6,27.53-81.17,94.7-87.32,132.31c-2.75,16.61-10.02,31.95-20.17,45.38
				c-36.59,48.25-31.43,110.85-24.03,147.1c3.76,18.51,0.65,37.73-9.04,53.94C1187.69,2326.44,1188.77,2400.51,1188.77,2400.51z"/>
		</g>
		<g class="st3">
			<path class="st4" d="M1866.76,1596.47c7.02,0.91,15.46,3.25,17.16,10.12c2.37,9.55-10.1,15.38-19.79,17.12
				c-46.1,8.27-92.75,14.45-137.64,27.8c-44.89,13.35-88.58,34.52-120.9,68.42c-8.6,9.02-16.52,19.03-27.21,25.44
				c-10.68,6.41-25.27,8.37-35.17,0.82c-33.36-25.42,65.31-87.42,83.35-98.23c45.52-27.3,96.8-45.03,149.48-51.56
				C1806.13,1592.67,1836.68,1592.59,1866.76,1596.47z"/>
		</g>
		<g class="st6">
			<path class="st1" d="M3024.36,1760.47c10.77-147.51-77.73-214.39-77.73-214.39c0.12-102.54-120.08-186.4-120.08-186.4
				c-29.56-48.02-71.12-83.63-109.87-108.92l-10.68,14.6c0,0,128.33,150.97,65.43,222.5c-62.89,71.48-116.62,6.21-167.34,114.17
				c-50.73,108.02-6.51,198.36-52.02,238.65c-45.51,40.34-59.87,48.91-89.81,101.65s-101.7,51.62-166.13,147.16
				c-64.43,95.54-239.15,19.62-305.8,22.99c-66.65,3.37-116.54,80.36-115.62,182.92c0.92,102.56-60.31,158.01-120.94,119.53
				c-60.57-38.53-72.44-49.78-121.57-42.65c-48.46,7.01-261.67,225.76-469.3,35.5c20.16,111.32,108.43,188.79,268.57,230.57
				c102.23,104.46,280.7,42.46,280.7,42.46c97.58,21.46,182.94-14.11,230.52-41.4c25.74-14.76,56.94-17.1,84.14-5.17
				c51.41,22.54,99.41,34.72,142.57,40.18c99.48,12.64,198.6-20.22,274.41-85.81c54.82-47.41,98.84-48.59,98.84-48.59
				c162.5,6.37,169.61-141.41,169.61-141.41c144.44-22.41,176.27-157.41,176.27-157.41c115.44-101.43,130.14-252.33,130.14-252.33
				C3062.7,1862.13,3024.36,1760.47,3024.36,1760.47z M1958.27,2494.63c-15.03,13.29-34.98,15.74-48.57,31.77
				c-11.96,14.12-18.22,32.17-30.97,45.75c-22.21,23.64-58.25,28.26-90.52,24.81c-32.27-3.4-63.89-13.34-96.32-13.02
				c-22.1,0.25-43.89,5.26-65.9,6.56c-26.37,1.65-54.79-2.68-72.68-23.87c-6.67-7.96-9.04-19.06-4.78-28.53
				c7.14-15.74,25.71-15.15,40.74-19.33c24.95-6.97,44.18-29.68,69.93-32.52c17.77-1.94,35.09,6.08,50.15,15.74
				c15.01,9.61,29.16,21.13,45.83,27.51c32.06,12.23,69.54,2.99,97.12-17.46c18.4-13.6,32.9-31.6,44.56-51.4
				c13.73-23.28,46.33-27.49,63.89-6.93C1971.14,2465.85,1973.89,2480.88,1958.27,2494.63z M2200.39,2477.31
				c-13.52,8.41-29.1,14.9-44.98,13.47c-15.88-1.38-31.65-12.64-34.01-28.41c-2.21-14.83,7.3-28.58,15.37-41.28
				c15.94-24.93,29.32-53.28,36.1-82.23c5.11-21.87-2.75-50.4,23.99-60.75c14.47-5.59,31.51-1.32,43.66,8.35
				c12.15,9.67,19.83,24.02,24.24,38.95C2281.44,2382.05,2250.66,2446.21,2200.39,2477.31z M2817.29,1749.2
				c9.37-20.08,22.17-38.09,37.72-53.93c10.14-10.3,30.63-38.13,47.2-36.43c33.86,3.35,7.73,44.61-2.51,56.17
				c-32.1,36.38-50.7,84.4-51.5,132.9c-0.16,11.25,0.46,23.05-4.45,33.18c-4.91,10.13-17.86,17.48-27.62,11.94
				c-6.49-3.66-9.33-11.34-11.23-18.45C2793.76,1833.06,2799.19,1787.98,2817.29,1749.2z M2429.25,2094.54
				c3.64-15.94,18.6-29.07,31.67-38.88c13.07-9.76,27.87-16.91,41.64-25.69c38.49-24.6,77.83-68.52,89.35-112.72
				c3.04-11.59,6.23-23.6,13.93-32.87c7.65-9.22,21.13-14.77,31.96-9.75c13.33,6.25,16.06,23.8,15.75,38.5
				c-1.67,93.58-54.13,184.77-134.28,233.14c-15.86,9.61-33.27,17.78-51.79,18.79c-18.53,1.06-38.38-6.26-48.27-21.92
				C2409.27,2127.46,2412.94,2103.4,2429.25,2094.54z M2840.87,2121.56c-7.03,29.37-29.21,54.83-55.27,70.12
				c-26.05,15.24-58.37,19.36-87.43,11.14c-9.56,33.14-32.53,61.83-61.76,80.08c-29.29,18.29-65.34,25.33-99.35,19.39
				c-16.29,22.21-37.53,43.12-61.09,57.39c-16.72,10.04-35.08,17.82-54.38,20.42c-19.35,2.54-39.74-0.37-56.48-10.33
				c-5.26-3.19-10.3-7.18-13.14-12.6c-2.84-5.48-2.97-12.69,0.89-17.46c12-14.67,38.55-9.65,56.38-16.1
				c34.47-12.48,56.23-45.66,75.53-76.82c29.29,4.33,60.46,0.13,87.69-11.67c11.18-4.9,22.08-11.3,29.34-21.15
				c13.65-18.5,12.16-46.13,28.8-61.94c31.68,9.23,69.36,2.43,97.87-14.17c28.51-16.65,49.77-45.31,57.39-77.38
				c21.4-15.52,50.98-22.7,71.42-39.39c18.92-15.43,31.16-37.88,38.36-61.24c7.2-23.37,11.79-48.68,14.28-73
				c8.21-1.87,16.75,3.09,21.45,10.08c4.71,6.99,6.28,15.56,7.21,23.92C2947.42,1998.89,2907.75,2080.42,2840.87,2121.56z"/>
		</g>
		<g class="st3">
			<path class="st4" d="M1503.35,2122c-1.98,7.29-3.98,14.75-3.4,22.29c0.58,7.53,4.26,15.27,11.01,18.66
				c4.46,2.24,9.66,2.35,14.65,2.4c37.91,0.31,79.53-2.11,107.37-27.84c11.35-10.49,19.74-25.28,18.86-40.71
				c-0.88-15.43-13.14-30.52-28.58-31.15c-11.89,18.45-32,32.17-52.54,39.88C1550.18,2113.25,1525.13,2119.32,1503.35,2122z"/>
		</g>
		<g class="st3">
			<path class="st4" d="M1408.67,2117.43c-2.64,5.6-5.22,11.71-4.06,17.8c1.04,5.5,5.11,10.09,9.97,12.86
				c4.86,2.77,10.47,3.94,16.03,4.61c5.87,0.7,12.49,0.66,16.87-3.32c3.95-3.59,4.93-9.39,5.08-14.74
				C1453.31,2107,1423.34,2086.25,1408.67,2117.43z"/>
		</g>
		<g class="st5">
			<path class="st4" d="M2312.4,1108.27c-38.33-21.97-84.85-27.23-136.07-23.06c-68.48-34.77-156.45-38.88-226,10.97
				c-123-32.82-199.9,14.68-247.23,113.78c-87.94,3.85-139.44,48.7-175.61,110.77c-77.08,30.35-129.46,83.49-154.61,161.73
				c-82.08,10.87-115.79,68.55-133.89,141.27c-91.74,30.27-119.3,95.6-92.78,179.98c-70.77,35.7-90.2,83.66-73.4,140.2
				c-76.67,56.31-85.39,135.97-44.27,230.2c-6.94,67.99,6.33,121.02,39.8,159.06c-62.74-37.37-89.48-101.44-80.22-192.22
				c-41.13-94.23-32.4-173.9,44.27-230.2c-16.8-56.54,2.63-104.5,73.4-140.2c-26.52-84.38,1.04-149.71,92.78-179.98
				c18.11-72.72,51.81-130.4,133.89-141.27c25.15-78.25,77.53-131.38,154.61-161.73c36.17-62.06,87.61-106.92,175.61-110.77
				c47.27-99.1,124.23-146.59,247.23-113.78c69.55-49.85,157.52-45.74,226-10.97C2206.85,1046.25,2268.78,1058.68,2312.4,1108.27z"
				/>
		</g>
		<g class="st5">
			<g>
				<path class="st4" d="M2773.02,1294.75c-61.7-44.16-121.35-62.24-121.35-62.24c-85.3-74.55-187.78-94.94-298.24-90.43
					c-11.96-13.78-25.33-24.7-39.93-33.18c110.28-4.42,212.55,16.01,297.74,90.44C2611.25,1199.35,2700.07,1226.26,2773.02,1294.75z
					"/>
			</g>
			<g>
				<path class="st1" d="M2771.56,1296.79c-60.62-43.39-120.02-61.7-120.62-61.88l-0.92-0.51
					c-76.01-66.44-170.17-94.98-296.49-89.81l-1.2,0.05l-0.79-0.91c-11.41-13.15-24.63-24.13-39.29-32.66l-7.43-4.31l8.58-0.34
					c127.15-5.12,222.22,23.73,299.09,90.71c7.48,2.38,92.6,30.43,162.23,95.81L2771.56,1296.79z M2652.92,1230.28
					c4.87,1.55,42.87,14.02,87.89,40.57c-48.97-37.23-98.87-57.82-119.92-65.54C2631.92,1212.95,2642.58,1221.27,2652.92,1230.28z
					 M2381.89,1138.99c84,0,153.38,16.13,212.63,49.75c-71.52-56.08-158.93-80.89-272.68-77.62c12.01,7.86,22.97,17.39,32.68,28.42
					C2363.82,1139.17,2372.94,1138.99,2381.89,1138.99z"/>
			</g>
		</g>
		<g class="st5">
			<g>
				<path class="st4" d="M1158.52,2364.85c0.23,8.09,0.76,15.98,1.61,23.79c-39.27-12.04-69.89-30.53-91.8-55.47
					C1092.86,2347.86,1122.96,2358.41,1158.52,2364.85z"/>
			</g>
			<g>
				<path class="st1" d="M1163.04,2392.15l-3.63-1.11c-39.56-12.13-70.83-31.04-92.94-56.21l-10.55-12.01l13.72,8.22
					c24.1,14.44,54.16,24.99,89.35,31.36l2,0.36l0.06,2.03c0.24,8.23,0.76,15.95,1.6,23.59L1163.04,2392.15z M1081.79,2343.31
					c19.61,17.96,44.92,31.98,75.47,41.8c-0.57-5.91-0.95-11.9-1.17-18.17C1127.94,2361.69,1103.04,2353.77,1081.79,2343.31z"/>
			</g>
		</g>
		<g class="st5">
			<g>
				<path class="st4" d="M2313.5,1108.9c-0.16-0.01-0.33,0.03-0.5,0.02c-0.2-0.23-0.41-0.47-0.61-0.65
					C2312.77,1108.47,2313.14,1108.66,2313.5,1108.9z"/>
			</g>
			<g>
				<path class="st1" d="M2322.57,1111.94l-9.11-0.53l-0.63,0.01l-1.04-0.08l-0.67-0.79c-0.12-0.14-0.24-0.29-0.36-0.4l-15.37-13.54
					l18.17,9.45c0.45,0.23,0.9,0.47,1.34,0.77L2322.57,1111.94z"/>
			</g>
		</g>
		<g>
			<path class="st1" d="M1595.04,2718.49c-56.74,0-122.52-13.5-173.42-62.92c-176.73-47.37-271.33-139.78-281.48-274.88
				c-123.68-27.64-182.86-109.16-171.57-236.68c-52.38-124.19-8.8-198.6,42.16-240.7c-9.21-43.91-0.94-99.6,72.47-142.32
				c-21.28-86.59,14.32-153.11,99.38-185.1c15.41-56.48,47.1-126.53,135.46-143.66c27.09-74.48,79.45-128.24,155.85-160.01
				c43.14-71.05,99.58-107.5,176.53-113.85c54.13-105,140.12-144.01,255.81-116.06c66.99-43.82,155.14-47.6,233.47-9.77
				c79.85-5.52,139.4,13.13,181.48,56.91c126.11-3.64,221.61,25.97,299.66,92.84c24.6,8.18,150.56,54.45,220,164.07
				c19.92,14.67,118.99,92.4,124.7,190.67c22.3,20.5,86.28,91.12,78.21,220.83c6.96,21.13,33.98,117.38-6.26,235.26
				c-2.43,20.54-22.59,159.42-131.94,258.63c-8.2,27.5-48.36,136.29-176.15,163.23c-7.45,41.07-41.04,149.5-186.54,144.24
				c-3.96,0.34-40.93,4.48-86.47,43.9c-81.4,70.44-186.89,103.37-289.36,90.35c-49.36-6.27-99.11-20.29-147.88-41.67
				c-21.13-9.27-46.15-7.67-66.91,4.24c-44.97,25.81-135.22,65.45-238.98,44.58C1697.68,2705.48,1650.72,2718.48,1595.04,2718.49z
				 M1837.2,1071.76c-70.02,0-120.82,37.02-157.22,113.3c-3.06,6.4-9.39,10.59-16.47,10.9c-71.59,3.11-120.9,34.34-159.87,101.26
				c-2.17,3.73-5.53,6.61-9.54,8.19c-73.39,28.91-120.29,77.89-143.38,149.76c-2.27,7.05-8.39,12.17-15.73,13.14
				c-62.5,8.28-97.72,46.24-117.81,126.9c-1.59,6.39-6.34,11.51-12.59,13.57c-77.86,25.72-104.95,78.21-80.5,156.02
				c2.81,8.96-1.27,18.63-9.65,22.86c-76.84,38.78-73.13,85.7-63.66,117.62c2.3,7.76-0.51,16.12-7.03,20.91
				c-65.45,48.05-77.9,115.79-38.04,207.08c1.32,3.02,1.84,6.34,1.5,9.62c-11.79,115.62,38.83,182.05,154.76,203.09
				c8.93,1.62,15.49,9.27,15.74,18.33c3.54,127.42,88.14,210.99,258.65,255.48c3.37,0.88,6.44,2.66,8.87,5.14
				c92.35,94.41,259.03,38.33,260.71,37.75c3.34-1.15,6.95-1.37,10.39-0.61c93.34,20.53,175.92-15.81,216.84-39.29
				c31.27-17.95,69.18-20.23,101.4-6.11c45.4,19.9,91.59,32.93,137.31,38.74c91.69,11.67,186.25-17.98,259.43-81.3
				c59.29-51.31,108.81-53.21,110.89-53.26c0.42-0.01,0.84-0.01,1.26,0.01c141.83,5.56,149.45-117.92,149.71-123.18
				c0.44-9.09,7.21-16.63,16.21-18.02c129.43-20.08,159.35-137.91,160.56-142.91c0.93-3.84,3.03-7.35,5.99-9.95
				c108.07-94.97,123.54-238.36,123.68-239.79c0.15-1.5,0.48-2.99,0.97-4.41c41.03-118.14,6.2-214.47,5.84-215.43
				c-0.96-2.58-1.37-5.38-1.17-8.12c9.81-134.43-66.97-195.23-70.24-197.75c-4.72-3.64-7.55-9.31-7.54-15.27
				c0.15-91.44-110.72-169.82-111.84-170.6c-2.16-1.5-3.98-3.43-5.36-5.67c-67.21-109.12-203.21-151.65-204.58-152.07
				c-2.59-0.79-5-2.13-7.04-3.91c-72.57-63.44-163.04-90.69-284.84-85.7c-5.82,0.2-11.43-2.18-15.25-6.57
				c-35.18-40.45-86.38-56.44-161.08-50.34c-3.53,0.31-7.08-0.41-10.24-2.01c-54.6-27.73-137.43-39.8-206.14,9.46
				c-4.66,3.34-10.59,4.42-16.11,2.94C1880.59,1075.05,1858.04,1071.76,1837.2,1071.76z"/>
		</g>
		<g>
			<path class="st1" d="M1139.35,2365.14c0-3.78,0.1-6.63,0.25-9.82c0.14-3.1,0.36-6.17,0.62-9.22c0.5-6.11,1.2-12.15,2.03-18.18
				c1.7-12.04,4.08-23.96,6.99-35.78c6.11-23.54,14.41-46.75,26.27-68.47l4.51-8.1l1.93-3.46c0.55-0.91,1-1.88,1.49-2.83
				c1.89-3.81,3.26-7.88,4.23-12.04c0.98-4.16,1.4-8.46,1.4-12.75c0.01-2.15-0.15-4.3-0.38-6.44c-0.17-1.06-0.25-2.14-0.47-3.2
				l-0.7-3.79c-4.69-24.06-6.58-48.89-4.22-74.01c2.44-25.02,9.56-50.56,23.2-73.08c1.55-2.89,3.52-5.53,5.37-8.24
				c1.86-2.68,3.91-5.64,5.15-7.26c2.79-3.92,5.31-7.98,7.42-12.18c2.15-4.18,3.87-8.5,5.25-12.87c0.64-2.2,1.26-4.4,1.7-6.62
				l1.46-7.97c4.45-24.18,11.98-48.04,23.79-70.52c6.03-11.18,13.2-21.92,21.56-31.88c8.41-9.95,18.36-18.74,29.12-26.39
				c10.29-7.51,25.14-13.47,30.57-17.09c7.21-4.6,13.28-10.81,17.47-17.99c2.1-3.59,3.72-7.42,4.84-11.38
				c0.54-1.99,1.01-3.99,1.3-6.04l0.66-4.21c0.26-1.6,0.45-3.2,0.79-4.79c2.32-12.76,6.12-25.44,11.81-37.44
				c5.63-12,12.99-23.37,21.93-33.29c8.93-9.94,19.27-18.46,30.32-25.45l8.42-4.97c2.13-1.22,3.91-2.27,5.79-3.55
				c3.69-2.51,7.14-5.39,10.3-8.59c6.31-6.41,11.44-14.11,15.03-22.52c0.91-2.1,1.73-4.24,2.42-6.43l2.67-8.3
				c1.98-5.94,4.2-11.79,6.65-17.56c4.93-11.53,10.87-22.67,17.74-33.24c6.82-10.61,14.7-20.59,23.47-29.7
				c4.25-4.7,9.02-8.86,13.65-13.18l7.33-6.01c2.42-2.04,4.93-3.95,7.54-5.72l7.73-5.45l8.04-4.92c5.29-3.44,10.99-6.03,16.5-9
				c5.54-2.69,11.56-5.17,16.91-7.53c4.51-1.83,8.89-3.96,13.06-6.38c8.35-4.85,15.93-10.83,22.35-17.78
				c3.21-3.47,6.13-7.18,8.73-11.09l4.7-7.17c1.66-2.61,3.46-5.1,5.25-7.61c28.53-40.16,67.88-72.36,112.34-92.99
				c22.2-10.37,45.57-17.89,69.29-22.92l16.31-3.44c4.55-1.1,8.99-2.57,13.26-4.4c8.54-3.65,16.38-8.75,23.04-15.03
				c1.66-1.57,3.24-3.23,4.77-4.93l5.24-6.2c3.9-4.78,8.15-9.24,12.3-13.78c8.67-8.74,17.59-17.27,27.35-24.83
				c19.25-15.43,40.77-28.21,63.74-37.54c22.93-9.39,47.22-15.52,71.73-17.97c24.5-2.5,49.09-1.9,73.2,1.13l3.84,0.43
				c1.16,0.15,2.33,0.2,3.5,0.31c2.34,0.15,4.68,0.22,7.01,0.18c4.67-0.08,9.32-0.54,13.9-1.38c4.58-0.83,9.06-2.09,13.4-3.69
				c2.18-0.78,4.3-1.71,6.39-2.68c2.33-1.05,5.49-2.63,8.25-3.8c22.8-10.02,47.13-16.77,72.14-19.36c12.5-1.28,25.14-1.63,37.73-0.8
				c3.15,0.13,6.29,0.47,9.43,0.81l8.34,0.91c4.75,0.46,9.54,0.59,14.31,0.4c9.57-0.31,19.09-1.98,28.37-4.7
				c5.38-1.54,11.71-3.55,17.6-4.77c5.98-1.51,12.02-2.49,18.02-3.65c48.3-7.56,97.12-4.18,142.95,7.69
				c22.9,5.95,45.27,13.47,66.59,23.11c10.79,4.5,21.1,10,31.45,15.29c10.3,5.37,20.13,11.63,30.07,17.5
				c1.31,0.77,1.74,2.45,0.97,3.76c-0.69,1.17-2.12,1.64-3.35,1.17l-0.1-0.04c-42.78-16.49-86.4-29.49-130.58-35.44
				c-22.05-3.05-44.19-4.34-66.08-3.5c-21.88,0.65-43.55,3.32-64.44,8.28c-10.57,2.49-20.36,5.44-30.91,8.96
				c-12.57,4.26-25.85,6.54-39.21,7.02c-6.68,0.16-13.38-0.14-20.04-0.9l-8.74-1.16c-2.56-0.36-5.11-0.72-7.69-0.89
				c-10.27-0.95-20.65-1.08-30.98-0.18c-20.64,1.83-41.22,7.03-60.34,15.59c-2.53,1.07-4.49,2.08-7.38,3.4
				c-3.1,1.45-6.25,2.81-9.46,3.97c-6.41,2.37-13.02,4.22-19.72,5.44c-6.71,1.23-13.5,1.9-20.3,2.01c-3.4,0.06-6.79-0.04-10.18-0.26
				c-1.69-0.15-3.39-0.24-5.07-0.45l-4.71-0.53c-21.42-2.67-42.92-3.16-64.06-1.02c-21.15,2.09-41.8,7.35-61.31,15.32
				c-19.54,7.93-37.87,18.81-54.41,32.07c-8.4,6.47-16.06,13.86-23.56,21.37c-3.57,3.93-7.26,7.76-10.6,11.88l-5.87,6.93
				c-2.29,2.57-4.69,5.06-7.19,7.43c-10.02,9.47-21.72,17.04-34.26,22.4c-6.27,2.69-12.75,4.83-19.35,6.42l-17.34,3.68
				c-21.13,4.48-41.69,11.11-61.05,20.16c-38.74,17.98-72.67,45.81-97.32,80.49c-1.54,2.16-3.1,4.31-4.51,6.55l-4.73,7.21
				c-3.75,5.64-7.95,10.96-12.53,15.91c-9.16,9.9-19.79,18.26-31.28,24.91c-5.74,3.33-11.71,6.23-17.82,8.71
				c-5.13,2.28-9.74,4.16-14.51,6.46c-4.56,2.5-9.37,4.61-13.68,7.47l-6.64,4.04l-6.32,4.48c-2.15,1.44-4.2,2.99-6.16,4.67
				l-5.98,4.88c-3.73,3.54-7.65,6.88-11.08,10.72c-7.14,7.4-13.55,15.5-19.12,24.19c-5.62,8.65-10.52,17.82-14.61,27.38
				c-2.03,4.79-3.88,9.65-5.53,14.6l-2.6,8.08c-1.04,3.28-2.26,6.5-3.63,9.66c-5.42,12.66-13.18,24.41-22.97,34.34
				c-4.89,4.96-10.28,9.47-16.08,13.41c-2.85,1.95-6.02,3.81-8.87,5.43l-6.4,3.78c-16.7,10.49-29.9,25-38,42.58
				c-4.16,8.73-7.01,18.2-8.8,27.99c-0.26,1.21-0.4,2.46-0.6,3.69l-0.67,4.29c-0.53,3.63-1.35,7.22-2.33,10.76
				c-2.01,7.07-4.9,13.88-8.6,20.19c-7.38,12.64-17.83,23.25-29.94,30.97c-5.83,3.86-13.52,7.16-16.89,9.02
				c-4.45,2-8.46,4.75-12.57,7.34c-7.88,5.67-15.29,12.1-21.7,19.7c-6.37,7.62-12.02,16.02-16.89,25.02
				c-9.54,18.16-16.09,38.49-19.92,59.39l-1.66,8.95c-0.69,3.4-1.6,6.73-2.59,10.03c-2.05,6.57-4.62,12.93-7.71,18.95
				c-3.05,6.05-6.6,11.75-10.46,17.17c-2.22,2.95-3.39,4.74-4.8,6.77c-1.37,2.03-2.89,3.96-4.02,6.15
				c-10.18,16.79-15.87,36.49-17.89,57.03c-1.94,20.57-0.42,41.96,3.67,62.88l0.86,4.67c0.35,1.75,0.53,3.54,0.78,5.31
				c0.39,3.56,0.63,7.14,0.63,10.72c0.01,7.17-0.72,14.36-2.35,21.37c-1.62,7.01-3.96,13.87-7.15,20.34
				c-0.81,1.61-1.6,3.23-2.51,4.79l-2.27,4.05l-3.85,6.93c-10.17,18.56-17.44,38.88-22.86,59.69c-2.57,10.45-4.69,21.05-6.2,31.72
				c-0.73,5.33-1.36,10.68-1.79,16.01c-0.22,2.66-0.41,5.31-0.53,7.94c-0.14,2.54-0.21,5.42-0.21,7.37l0,0.6
				c-0.03,10.59-8.63,19.15-19.22,19.12C1147.89,2384.26,1139.33,2375.73,1139.35,2365.14z"/>
		</g>
		<g>
			<path class="st1" d="M1142.09,2365.1c0.02-6.91,0.35-12.61,0.86-18.77c0.49-6.05,1.19-12.05,2.01-18.02
				c1.68-11.94,4.05-23.77,6.93-35.49c6.06-23.35,14.29-46.35,26.03-67.84l4.47-8.02l1.96-3.5c0.58-0.96,1.05-1.97,1.56-2.97
				c1.99-4.01,3.42-8.27,4.43-12.64c1.03-4.36,1.46-8.87,1.46-13.36c0.01-2.25-0.15-4.5-0.39-6.74c-0.17-1.11-0.26-2.24-0.49-3.35
				l-0.71-3.85c-4.65-23.84-6.51-48.42-4.18-73.22c2.41-24.7,9.43-49.82,22.82-71.94c1.52-2.84,3.46-5.43,5.28-8.1
				c1.83-2.63,3.81-5.51,5.12-7.23c2.86-4.03,5.46-8.2,7.64-12.53c2.21-4.32,4-8.78,5.42-13.31c0.66-2.27,1.3-4.55,1.77-6.86
				l1.47-8.04c4.4-23.95,11.87-47.55,23.52-69.73c5.94-11.02,13-21.6,21.22-31.39c8.26-9.78,18.03-18.41,28.59-25.91
				c10.15-7.41,24.44-13.07,30.49-17.04c7.57-4.82,13.94-11.35,18.36-18.92c2.22-3.78,3.92-7.82,5.11-12.01
				c0.57-2.1,1.07-4.22,1.38-6.38l0.66-4.22c0.25-1.57,0.44-3.15,0.77-4.72c2.29-12.55,6.01-25,11.59-36.77
				c5.52-11.77,12.72-22.91,21.49-32.63c8.75-9.74,18.89-18.09,29.74-24.96l8.27-4.88c2.18-1.25,4.06-2.35,6.01-3.68
				c3.84-2.61,7.43-5.61,10.71-8.94c6.56-6.66,11.87-14.65,15.6-23.37c0.95-2.17,1.8-4.39,2.5-6.66l2.66-8.28
				c1.96-5.87,4.16-11.65,6.57-17.35c4.87-11.39,10.73-22.39,17.51-32.82c6.73-10.47,14.5-20.32,23.16-29.31
				c4.19-4.64,8.9-8.74,13.46-13l7.24-5.93c2.38-2.02,4.87-3.9,7.44-5.64l7.63-5.38l7.94-4.86c5.22-3.4,10.85-5.95,16.3-8.89
				c5.48-2.67,11.4-5.1,16.74-7.46c4.62-1.88,9.11-4.06,13.4-6.55c8.58-4.97,16.37-11.13,22.99-18.29c3.31-3.58,6.32-7.4,9-11.43
				l4.71-7.17c1.64-2.58,3.42-5.05,5.19-7.54c28.25-39.77,67.21-71.66,111.26-92.1c22-10.28,45.17-17.73,68.7-22.72l16.39-3.46
				c4.69-1.14,9.28-2.65,13.7-4.54c8.83-3.78,16.95-9.05,23.84-15.56c1.72-1.63,3.36-3.34,4.94-5.1l5.29-6.25
				c3.86-4.74,8.07-9.14,12.19-13.64c8.58-8.65,17.41-17.1,27.08-24.58c19.06-15.27,40.35-27.92,63.08-37.15
				c22.69-9.29,46.72-15.36,70.99-17.78c24.26-2.47,48.63-1.88,72.55,1.12l3.9,0.43c1.2,0.16,2.41,0.21,3.61,0.33
				c2.41,0.15,4.82,0.22,7.24,0.18c4.82-0.08,9.63-0.56,14.36-1.42c4.73-0.85,9.36-2.16,13.85-3.82c2.25-0.81,4.45-1.77,6.61-2.77
				c2.38-1.07,5.45-2.61,8.19-3.77c22.54-9.92,46.6-16.56,71.3-19.09c12.34-1.26,24.82-1.57,37.24-0.73
				c3.11,0.13,6.21,0.47,9.3,0.81l8.37,0.93c4.89,0.48,9.81,0.63,14.72,0.44c9.84-0.33,19.63-2.04,29.15-4.86
				c11.23-3.55,23.47-6.36,35.28-8.46c47.84-7.72,96.36-4.66,142.06,6.8c45.84,11.14,88.82,30.56,128.28,54.43
				c1.11,0.67,1.47,2.12,0.8,3.23c-0.6,0.99-1.81,1.38-2.85,0.98l-0.07-0.03l-16.06-6.11c-5.34-2.03-10.54-4.35-16-6.04
				c-10.83-3.59-21.48-7.5-32.48-10.29c-21.65-6.61-43.8-11.07-65.87-14.45c-22.11-3.27-44.36-4.71-66.4-4.05
				c-22.02,0.51-43.89,3.06-65.01,7.94c-10.67,2.46-20.65,5.4-31.25,8.92c-12.34,4.15-25.35,6.38-38.44,6.85
				c-6.55,0.16-13.11-0.12-19.63-0.86l-8.71-1.15c-2.6-0.35-5.2-0.72-7.81-0.88c-10.44-0.94-20.97-1.04-31.46-0.11
				c-20.95,1.88-41.79,7.19-61.18,15.86c-2.54,1.08-4.59,2.13-7.44,3.43c-3.03,1.42-6.1,2.75-9.24,3.88
				c-6.27,2.31-12.72,4.12-19.27,5.31c-6.55,1.2-13.19,1.86-19.84,1.97c-3.32,0.06-6.64-0.04-9.95-0.25
				c-1.65-0.15-3.31-0.24-4.95-0.44l-4.65-0.52c-21.61-2.69-43.33-3.19-64.71-1.03c-21.39,2.11-42.3,7.43-62.06,15.51
				c-19.79,8.03-38.34,19.04-55.07,32.46c-8.5,6.55-16.25,14.02-23.83,21.62c-3.61,3.97-7.34,7.85-10.72,12.02l-5.83,6.88
				c-2.24,2.51-4.58,4.94-7.02,7.25c-9.78,9.24-21.21,16.63-33.46,21.87c-6.13,2.62-12.46,4.72-18.91,6.28l-17.27,3.66
				c-21.31,4.52-42.07,11.21-61.64,20.35c-39.15,18.17-73.47,46.31-98.4,81.38c-1.56,2.19-3.14,4.36-4.57,6.62l-4.73,7.21
				c-3.67,5.52-7.78,10.72-12.26,15.56c-8.96,9.69-19.38,17.88-30.64,24.4c-5.63,3.27-11.48,6.11-17.48,8.55
				c-5.15,2.29-9.86,4.2-14.69,6.54c-4.63,2.53-9.5,4.68-13.89,7.58l-6.74,4.1l-6.42,4.55c-2.18,1.46-4.27,3.04-6.26,4.74
				l-6.08,4.96c-3.79,3.59-7.78,6.99-11.26,10.89c-7.25,7.52-13.77,15.76-19.43,24.58c-5.71,8.79-10.69,18.09-14.83,27.79
				c-2.06,4.86-3.94,9.79-5.61,14.81l-2.6,8.1c-1.01,3.2-2.21,6.35-3.55,9.43c-5.29,12.36-12.86,23.82-22.4,33.5
				c-4.77,4.84-10.02,9.23-15.66,13.06c-2.79,1.9-5.85,3.71-8.65,5.3l-6.54,3.86c-17.1,10.73-30.7,25.68-39.02,43.74
				c-4.27,8.96-7.19,18.66-9.02,28.67c-0.27,1.24-0.41,2.51-0.62,3.77l-0.67,4.28c-0.52,3.52-1.31,6.99-2.26,10.42
				c-1.95,6.85-4.75,13.45-8.33,19.56c-7.16,12.25-17.29,22.55-29.05,30.05c-5.68,3.76-13.03,6.91-16.65,8.88
				c-4.57,2.06-8.68,4.87-12.9,7.53c-8.09,5.81-15.68,12.41-22.23,20.17c-6.51,7.79-12.27,16.35-17.22,25.51
				c-9.7,18.46-16.33,39.05-20.2,60.19l-1.64,8.88c-0.67,3.31-1.56,6.57-2.52,9.79c-2,6.41-4.52,12.62-7.53,18.52
				c-2.98,5.92-6.46,11.5-10.25,16.82c-2.15,2.86-3.38,4.72-4.82,6.8c-1.41,2.08-2.95,4.06-4.11,6.3
				c-10.43,17.2-16.22,37.32-18.27,58.17c-1.97,20.9-0.42,42.53,3.72,63.68l0.85,4.6c0.34,1.71,0.51,3.44,0.75,5.16
				c0.38,3.46,0.62,6.93,0.61,10.42c0.01,6.96-0.7,13.95-2.28,20.75c-1.57,6.8-3.84,13.47-6.94,19.75
				c-0.79,1.56-1.55,3.14-2.44,4.65l-2.25,4l-3.9,7.01c-10.29,18.79-17.64,39.31-23.1,60.31c-2.59,10.55-4.73,21.24-6.25,32.01
				c-0.74,5.38-1.37,10.78-1.81,16.16c-0.47,5.26-0.73,11.02-0.75,15.58l0,0.64c-0.05,9.07-7.44,16.39-16.52,16.34
				C1149.36,2381.54,1142.04,2374.17,1142.09,2365.1z"/>
		</g>
		<g>
			<path class="st1" d="M1677.92,1182.94c-1.35,2.15-2.98,5.48-4.38,8.4c-1.43,3.04-2.84,6.15-4.14,9.32
				c-2.64,6.33-5.07,12.83-7.27,19.44c-4.36,13.24-7.88,26.93-10.51,40.91l-0.01,0.04c-0.48,2.57-2.96,4.26-5.53,3.78
				c-2.13-0.4-3.66-2.18-3.84-4.25c-1.26-14.57-1.58-29.36-0.9-44.25c0.36-7.45,0.99-14.92,1.92-22.43
				c0.45-3.76,1.02-7.52,1.66-11.32c0.71-3.91,1.29-7.37,2.51-11.9l0.26-0.95c2.4-8.9,11.56-14.17,20.45-11.77
				c8.9,2.4,14.17,11.56,11.77,20.45C1679.47,1180.02,1678.76,1181.58,1677.92,1182.94z"/>
		</g>
		<g>
			<path class="st1" d="M1348.46,1453.04c-2.52,6.85-4.9,14.7-7.01,22.24c-2.11,7.63-3.98,15.35-5.62,23.13
				c-3.25,15.57-5.42,31.38-5.79,47.37l0,0.09c-0.06,2.61-2.22,4.68-4.83,4.62c-2.22-0.05-4.05-1.63-4.5-3.7
				c-3.62-16.4-5.37-33.26-5.93-50.1c-0.28-8.43-0.29-16.88-0.03-25.34c0.29-8.55,0.71-16.73,1.71-25.77l0.01-0.06
				c1-9.09,9.19-15.64,18.28-14.64c9.09,1,15.64,9.19,14.64,18.28C1349.23,1450.47,1348.89,1451.83,1348.46,1453.04z"/>
		</g>
		<g>
			<path class="st1" d="M1502.9,1291.95c-1.51,3.83-3.07,8.73-4.47,13.24c-1.38,4.64-2.71,9.32-3.9,14.06
				c-2.41,9.47-4.51,19.09-6.15,28.81c-3.4,19.44-5.2,39.26-5.42,59.26l0,0.06c-0.03,2.6-2.16,4.69-4.76,4.66
				c-2.29-0.02-4.19-1.68-4.58-3.86c-3.73-20.2-5.88-40.85-6.31-61.65c-0.27-10.41-0.05-20.84,0.53-31.32
				c0.64-10.62,1.46-20.67,3.39-32.04l0.01-0.06c1.52-9,10.06-15.06,19.06-13.53s15.06,10.06,13.53,19.06
				C1503.64,1289.77,1503.3,1290.93,1502.9,1291.95z"/>
		</g>
		<g>
			<path class="st1" d="M1214.97,1591.51c-0.68,5.22-1.16,11.64-1.36,17.6c-0.25,6.08-0.26,12.19-0.13,18.32
				c0.31,12.25,1.42,24.5,3.33,36.65c1.81,12.19,4.94,24.08,8.76,35.8c3.87,11.73,9.32,22.81,15.58,33.56l0.14,0.23
				c1.3,2.24,0.54,5.12-1.7,6.42c-2.03,1.18-4.58,0.67-6.01-1.1c-8.31-10.22-15.96-21.2-22.01-33.06
				c-6.01-11.83-11.34-24.15-15.29-36.87c-4.05-12.69-7.27-25.67-9.65-38.83c-1.16-6.58-2.18-13.21-2.93-19.9
				c-0.79-6.8-1.35-13.16-1.55-20.71c-0.24-9.11,6.95-16.68,16.05-16.92c9.1-0.24,16.68,6.95,16.92,16.05
				c0.02,0.84-0.02,1.67-0.12,2.47L1214.97,1591.51z"/>
		</g>
		<g>
			<path class="st1" d="M1118.89,1757.04c1.95,7.96,4.75,16.81,7.65,25.13c2.96,8.43,6.25,16.75,9.87,24.95
				c7.26,16.38,15.94,32.17,26.87,46.5l0.06,0.08c1.58,2.07,1.18,5.03-0.89,6.61c-1.8,1.37-4.27,1.25-5.92-0.16
				c-14.5-12.39-27.15-26.95-38.39-42.41c-5.61-7.75-10.93-15.72-15.94-23.91c-5.03-8.3-9.67-16.34-14.21-25.62
				c-4.01-8.2-0.62-18.1,7.58-22.11c8.2-4.01,18.1-0.62,22.11,7.58c0.52,1.06,0.91,2.14,1.19,3.24L1118.89,1757.04z"/>
		</g>
		<g>
			<path class="st1" d="M1048.22,1906.35c-0.07,0.15,0.25,1.52,0.5,2.44c0.22,1,0.6,2.1,0.91,3.17c0.71,2.15,1.43,4.38,2.36,6.57
				c1.71,4.43,3.85,8.82,6.16,13.16c4.65,8.69,10.31,17.04,16.58,25.06c6.37,7.94,13.38,15.53,20.98,22.63
				c3.72,3.65,7.82,6.87,11.75,10.36c4.08,3.28,8.3,6.43,12.47,9.68l0.25,0.19c2.05,1.59,2.42,4.54,0.82,6.59
				c-1.41,1.82-3.89,2.31-5.87,1.29c-4.84-2.5-9.75-4.93-14.59-7.54c-4.69-2.83-9.6-5.42-14.18-8.5
				c-9.33-5.97-18.3-12.66-26.85-20.04c-8.46-7.48-16.52-15.61-23.79-24.69c-3.62-4.55-7.12-9.26-10.28-14.36
				c-1.64-2.5-3.12-5.15-4.6-7.87c-0.72-1.4-1.46-2.72-2.14-4.24c-0.73-1.57-1.3-2.72-2.15-5.13l-3.78-10.76
				c-3.52-10.02,1.75-20.99,11.77-24.5c10.02-3.52,20.99,1.75,24.5,11.77C1050.8,1896.64,1050.34,1901.92,1048.22,1906.35z"/>
		</g>
		<g>
			<path class="st1" d="M999.74,2129.33c5.98,7.18,13.34,14.76,20.56,21.67c7.36,6.96,15,13.69,23.06,19.78
				c16.09,12.17,33.74,22.65,53.33,26.94l0.21,0.05c2.54,0.56,4.14,3.07,3.59,5.6c-0.49,2.24-2.51,3.76-4.72,3.7
				c-11.18-0.3-22.2-2.52-32.84-5.73c-10.62-3.29-20.76-7.72-30.67-12.59c-9.89-4.92-19.34-10.54-28.6-16.5
				c-9.31-6.1-18.03-12.18-27.15-19.68c-7.04-5.79-8.05-16.2-2.26-23.24c5.79-7.04,16.2-8.05,23.24-2.26
				c0.79,0.65,1.51,1.36,2.14,2.12L999.74,2129.33z"/>
		</g>
		<g>
			<path class="st1" d="M1924.44,1070.69c-1.56,1.99-3.47,4.93-5.1,7.57c-1.69,2.72-3.31,5.52-4.86,8.37
				c-3.1,5.69-5.9,11.57-8.36,17.6c-4.84,12.07-8.17,24.77-8.38,37.9l0,0.23c-0.04,2.61-2.19,4.69-4.8,4.65
				c-2.16-0.04-3.96-1.52-4.49-3.51c-1.89-7.1-3.08-14.48-3.49-21.9c-0.32-7.39-0.15-14.85,0.6-22.22
				c0.77-7.37,1.95-14.7,3.54-21.96c0.8-3.63,1.68-7.25,2.7-10.87c1.04-3.71,2-7.03,3.57-11.19l0.31-0.83
				c3.25-8.62,12.88-12.98,21.5-9.73c8.63,3.25,12.98,12.87,9.73,21.5C1926.31,1067.89,1925.44,1069.4,1924.44,1070.69z"/>
		</g>
		<g>
			<path class="st1" d="M2163.04,1113.65c5.57,11.26,9.58,22.78,12.11,35.24c2.38,12.37,3.18,25.81-0.71,39.57
				c-1.95,6.82-5.22,13.64-9.9,19.53c-4.64,5.93-10.47,10.85-16.71,14.74c-12.65,7.49-26.4,11.05-39.57,12.78l-0.34,0.05
				c-9.04,1.19-17.33-5.18-18.52-14.22c-1.19-9.04,5.18-17.33,14.22-18.52c0.91-0.12,1.91-0.16,2.8-0.13
				c10.4,0.41,20.36-0.71,28.9-3.89c8.33-3.37,15.2-8.92,19.29-17.63c4.19-8.59,5.72-19.47,5.39-30.51
				c-0.33-11.02-2.33-22.61-5.57-33.3l-0.09-0.28c-0.75-2.48,0.65-5.1,3.13-5.86C2159.7,1110.56,2162.05,1111.63,2163.04,1113.65z"
				/>
		</g>
		<g>
			<path class="st1" d="M1643,1374.41c3.8,12.66,6.33,25.27,7.99,38.33c1.6,13.01,2.21,26.32,1.04,39.89
				c-1.15,13.53-4.14,27.45-10.47,40.81c-3.21,6.64-7.22,13.11-12.2,19.02c-5.04,5.85-10.93,11.07-17.4,15.51l-0.06,0.04
				c-7.5,5.16-17.77,3.26-22.92-4.25c-5.16-7.5-3.26-17.77,4.25-22.92c0.68-0.47,1.48-0.92,2.2-1.27c4.38-2.1,8.53-4.68,12.37-7.87
				c3.77-3.25,7.17-7.13,10.22-11.48c6.04-8.75,10.38-19.49,13.14-30.92c2.83-11.43,4.21-23.56,4.59-35.81
				c0.36-12.21-0.21-24.81-1.88-36.86l-0.03-0.22c-0.36-2.57,1.44-4.94,4.01-5.3C1640.19,1370.78,1642.35,1372.22,1643,1374.41z"/>
		</g>
		<g>
			<path class="st1" d="M1298.42,1765.69c3.67,10.08,6.38,20.09,8.64,30.48c2.18,10.36,3.82,20.93,4.49,31.78
				c0.58,10.85,0.34,21.96-1.35,33.3c-1.94,11.31-5.42,22.81-11.26,33.88c-4.25,8.07-14.24,11.16-22.31,6.91
				s-11.16-14.24-6.91-22.31c0.49-0.92,1.05-1.78,1.67-2.57l0.08-0.1c5.04-6.27,9.28-13.86,12.51-22.32
				c3.03-8.56,5.1-17.82,6.43-27.38c1.25-9.58,1.64-19.45,1.47-29.38c-0.21-9.88-0.98-20.05-2.52-29.73l-0.03-0.21
				c-0.41-2.57,1.34-4.98,3.91-5.39C1295.52,1762.29,1297.66,1763.61,1298.42,1765.69z"/>
		</g>
		<g>
			<path class="st1" d="M1187.29,1930.45c14.29,16.08,25.9,34.56,34.06,55.31c7.97,20.62,12.48,44.39,7.72,68.73
				c-2.31,12.08-7.4,23.85-14.35,34.05c-7.01,10.21-15.97,18.64-25.66,25.16c-19.48,13.08-41.23,19.47-62.83,21.1
				c-2.66,0.2-4.97-1.79-5.17-4.44c-0.14-1.86,0.79-3.56,2.28-4.47l0.08-0.05c17.87-10.96,34.89-21.43,48.11-34.19
				c13.34-12.67,21.91-27.19,25.41-43.75c3.46-16.62,2-35.28-1.94-54.27c-1.9-9.53-4.44-19.14-7.16-28.9
				c-2.73-9.78-5.98-19.51-8.75-29.72l-0.04-0.13c-0.7-2.56,0.82-5.2,3.38-5.9C1184.26,1928.51,1186.12,1929.13,1187.29,1930.45z"/>
		</g>
		<g>
			<path class="st1" d="M1483,1530.23c8.77,19.64,14.27,40.76,15.79,63.01c1.38,22.06-1.49,46.09-13.37,67.86
				c-5.84,10.82-14.25,20.51-23.95,28.14c-9.76,7.62-20.85,12.96-32.06,16.25c-22.52,6.6-45.18,6.12-66.27,1.17
				c-2.59-0.61-4.2-3.2-3.59-5.79c0.43-1.82,1.83-3.15,3.53-3.58l0.09-0.02c20.35-5.06,39.73-9.91,56.18-18.08
				c16.54-8.06,29.1-19.32,37.42-34.05c8.31-14.8,12.55-33.03,14.52-52.32c1.06-9.66,1.54-19.59,1.89-29.71
				c0.35-10.14,0.19-20.41,0.62-30.97l0.01-0.13c0.11-2.65,2.35-4.71,5-4.61C1480.69,1527.46,1482.28,1528.62,1483,1530.23z"/>
		</g>
		<g>
			<path class="st1" d="M1939.69,1226.82c-0.74,21.5-5.08,42.89-13.48,63.54c-8.45,20.43-21.58,40.75-41.81,55.1
				c-10,7.16-21.81,12.17-33.87,14.76c-12.12,2.56-24.42,2.49-35.94,0.52c-23.13-3.96-43.28-14.34-60.05-28.04
				c-2.06-1.68-2.37-4.72-0.68-6.78c1.18-1.45,3.03-2.03,4.73-1.67l0.09,0.02c20.5,4.39,40.04,8.54,58.42,8.42
				c18.4,0.03,34.62-4.58,48.57-14.16c13.96-9.65,25.78-24.17,36.02-40.64c5.19-8.21,9.99-16.92,14.75-25.86
				c4.77-8.96,9.13-18.25,14.16-27.55l0.06-0.12c1.26-2.34,4.18-3.2,6.51-1.94C1938.83,1223.32,1939.75,1225.06,1939.69,1226.82z"/>
		</g>
		<g>
			<path class="st1" d="M1312.58,2470.82c18.78,11.38,39.71,12.47,61.17,10.86c21.26-1.78,44.42-7.22,70.22-7.55
				c6.45-0.01,13.04,0.28,19.69,1.11c6.66,0.88,13.36,2.41,19.8,4.33c12.84,4.14,24.79,10.41,35.29,18.38
				c20.95,15.85,36.32,38.79,41.25,63.57c0.6,3-1.35,5.92-4.36,6.52c-2.36,0.47-4.66-0.63-5.83-2.58l-0.1-0.17
				c-11.62-19.4-27.31-34.99-45.8-45c-9.16-5.04-18.81-8.89-28.67-11.15c-9.83-2.22-19.8-2.87-30.55-2.45
				c-21.42,0.75-44.7,5.72-70.67,4.63c-12.85-0.73-25.96-2.99-38.35-8.14c-12.27-5.18-23.95-13.45-30.97-24.76
				c-1.63-2.63-0.82-6.08,1.8-7.71c1.85-1.15,4.11-1.09,5.85-0.04L1312.58,2470.82z"/>
		</g>
		<g>
			<path class="st1" d="M1220.09,2151.65c10.55,28.19,24.53,54.82,42.09,78.71c17.64,23.78,38.97,44.82,63.72,60.7
				c24.62,16.01,52.64,26.78,82.07,30.56c29.43,3.75,60.12,0.26,89.6-9.63c2.88-0.97,6,0.58,6.97,3.47
				c0.85,2.52-0.23,5.22-2.44,6.51l-0.03,0.01c-14.15,8.26-29.65,14.35-45.76,18.82c-16.17,4.22-33.07,6.3-50.03,5.96
				c-16.98-0.18-33.94-2.98-50.38-7.54c-16.39-4.76-32.22-11.49-47.07-19.89c-29.65-16.95-55.32-40.34-75.52-67.48
				c-20.35-27.07-35.21-57.9-44.48-90.01c-2.52-8.73,2.52-17.84,11.24-20.36c8.3-2.39,16.94,2.04,19.94,9.98L1220.09,2151.65z"/>
		</g>
		<g>
			<path class="st1" d="M1357.42,2041.93c26.47,15.68,54.04,29.89,82.15,40.16c28.04,10.11,57.1,17.12,84.55,14.63
				c13.68-1.06,26.72-4.56,38.76-10.21c12.06-5.69,22.84-14.01,32.51-23.89l7-7.76l6.73-8.6c4.32-5.85,8.51-11.8,12.12-18.03
				c7.35-12.41,13.18-25.52,17.31-39.22c4.3-13.67,6.25-28.05,7.35-42.88c1.12-14.91,0.95-30.27,2.26-47.3
				c0.76-8.52,2.03-17.58,5.09-26.95c3.02-9.32,8.2-18.89,15.32-26.51c7.13-7.64,15.47-13.08,23.73-17.44
				c4.16-2.03,8.33-4.05,12.5-5.5c4.18-1.71,8.33-2.98,12.47-4.19c17.18-4.62,31.55-6.94,46.81-10.26c7.53-1.63,15.09-3.24,22.57-5
				c7.53-1.62,15.02-3.35,22.45-5.25c14.95-3.49,29.83-7.21,44.43-11.46c7.35-2.03,14.57-4.37,21.7-6.79
				c3.56-1.25,7.05-2.57,10.51-3.94l5.03-2.19c0.84-0.37,1.65-0.75,2.4-1.14c0.74-0.33,1.63-0.91,1.95-0.97l3.38-0.57
				c2.7-0.45,5.25,1.37,5.7,4.07c0.25,1.46-0.19,2.89-1.05,3.96c-1.08,1.32-1.68,2.01-2.5,2.87c-0.77,0.85-1.54,1.62-2.32,2.37
				c-1.54,1.59-3.17,2.87-4.79,4.27c-3.24,2.69-6.6,5.17-10.04,7.45c-6.82,4.71-13.98,8.64-21.17,12.49
				c-7.25,3.68-14.6,7.05-22.01,10.28c-7.48,2.93-14.95,6.04-22.51,8.65c-15.15,5.29-30.46,9.84-45.88,13.84
				c-15.16,4.21-31.72,7.36-44.73,11.21c-3.39,0.97-6.74,1.97-9.82,3.24c-3.27,1.09-6.13,2.53-9.04,3.89
				c-5.56,2.92-10.5,6.2-14.12,10.05c-3.56,3.9-6.28,8.24-8.23,13.76c-1.97,5.48-3.18,12.01-3.98,19.06
				c-1.58,14.19-1.51,30.25-2.96,46.59c-1.4,16.39-4.03,33.21-8.77,49.59c-4.71,16.38-11.54,32.18-19.99,46.83
				c-4.11,7.41-8.79,14.42-13.62,21.28l-7.53,10.08l-8.52,9.9c-11.89,12.84-26.37,23.89-42.61,31.72
				c-16.21,7.96-34.15,12.05-51.74,12.96c-17.63,0.75-34.95-1.33-51.27-5.73c-8.16-2.19-16.17-4.7-23.93-7.67
				c-7.74-3.06-15.31-6.39-22.63-10.09c-14.66-7.4-28.57-15.9-41.57-25.5c-13.07-9.57-25.3-19.86-36.52-31.77
				c-2.08-2.22-1.98-5.7,0.24-7.79c1.83-1.72,4.52-1.95,6.58-0.73L1357.42,2041.93z"/>
		</g>
		<g>
			<path class="st1" d="M1402.91,1765.67c-0.8,3.32-1.57,7.79-2.19,11.81c-0.6,4.14-1.13,8.32-1.52,12.52
				c-0.81,8.4-1.18,16.86-1.07,25.29c0.23,16.87,2.37,33.67,7.08,49.65c4.87,15.87,12.36,30.97,23.37,43.42
				c10.79,12.66,25.11,22.23,40.9,28.99l0.12,0.05c2.78,1.19,4.07,4.42,2.88,7.2c-1.11,2.6-4.02,3.89-6.66,3.07
				c-17.74-5.51-35.04-14.55-49.01-27.86c-14.19-13.07-24.76-29.79-32.19-47.43c-7.29-17.75-11.62-36.47-13.81-55.28
				c-1.09-9.41-1.64-18.87-1.7-28.34c-0.05-4.74,0.07-9.49,0.26-14.26c0.26-4.88,0.52-9.31,1.23-14.8
				c1.16-9.01,9.41-15.38,18.43-14.22c9.02,1.16,15.38,9.41,14.22,18.43C1403.15,1764.5,1403.04,1765.1,1402.91,1765.67z"/>
		</g>
		<g>
			<path class="st1" d="M1856.33,1597.45c-21.46,0.3-42.03,1.22-62.3,3.83c-20.24,2.54-40.08,6.62-59.5,12.16
				c-19.42,5.57-38.39,12.66-56.9,21.26c-18.57,8.55-36.49,18.72-54.78,29.93l-0.04,0.03c-2.63,1.61-6.08,0.79-7.69-1.85
				c-1.19-1.95-1.05-4.34,0.17-6.11c12.77-18.44,29.72-33.89,48.53-46.45c18.87-12.51,39.79-22.08,61.63-28.38
				c21.83-6.33,44.64-9.35,67.29-8.78c22.61,0.63,45.19,4.73,65.8,13.63c2.84,1.23,4.14,4.52,2.92,7.36
				c-0.9,2.09-2.92,3.34-5.05,3.38H1856.33z"/>
		</g>
		<g>
			<path class="st1" d="M1917.11,1371.68c7.06,4.4,13.45,9.72,19.52,16.23c5.91,6.54,11.25,14.69,14.27,24.3
				c3.08,9.48,3.84,21.09,0.21,31.92c-3.37,10.81-10.33,19.71-18.19,26.23c-7.93,6.56-16.98,11-26.45,13.6
				c-9.67,2.64-19.18,2.96-28.12,2.14c-18.02-1.83-33.56-8.12-47.86-15.83c-2.75-1.48-3.78-4.92-2.3-7.67
				c1-1.86,2.91-2.93,4.88-2.97c16.29-0.31,31.73,0.84,45.36-0.87c6.81-0.83,13.18-2.22,18.55-4.41c5.54-2.24,10.67-5.35,14.81-8.95
				c4.12-3.65,7.11-7.72,8.87-11.88c1.76-4.07,2.51-8.89,1.96-14.71c-0.55-5.79-2.21-12.04-4.86-18.72
				c-2.49-6.76-6.13-13.66-9.11-21.41c-1.15-2.98,0.34-6.32,3.32-7.47C1913.73,1370.51,1915.63,1370.77,1917.11,1371.68z"/>
		</g>
		<g>
			<path class="st1" d="M2089.74,1366.75c13.9,16.15,26.92,33.01,39.22,50.67c12.22,17.69,23.48,36.33,32.94,56.21
				c4.75,9.92,8.83,20.23,12.49,30.75c3.75,10.46,6.67,21.34,8.86,32.5c2.31,11.11,3.32,22.44,3.93,33.79
				c0.39,11.37-0.21,22.79-1.57,34.16c-1.62,11.35-3.77,22.67-7.35,33.72c-3.59,11.01-8.1,21.82-14.12,31.9
				c-5.94,10.07-12.76,19.76-21.04,28.16c-8.2,8.41-17.29,15.82-26.99,21.99c-9.67,6.22-19.85,11.27-30.23,15.41
				c-10.37,4.18-20.88,7.56-31.47,10.17c-21.16,5.39-42.37,8.5-63.5,10.8c-3.02,0.33-5.74-1.85-6.07-4.88
				c-0.29-2.64,1.37-5.06,3.8-5.84c20.17-6.51,40.33-12.4,59.42-19.94c9.5-3.85,18.92-7.67,27.71-12.41
				c8.8-4.7,17.18-9.87,24.95-15.59c7.75-5.76,14.66-12.37,20.69-19.55c6.27-6.96,11.35-14.94,15.77-23.23
				c8.65-16.74,13.9-35.41,16.18-54.6c2.03-19.25,1.3-38.94-1.91-58.28c-3.33-19.21-8.85-38.7-16.35-57.49
				c-14.45-37.98-35.4-74.36-54.48-112.36c-1.37-2.72-0.27-6.04,2.45-7.41c2.31-1.16,5.04-0.55,6.66,1.33L2089.74,1366.75z"/>
		</g>
		<g>
			<path class="st1" d="M2323.58,1411.99c20.27,58.03,26.03,121.33,19.51,183.15c-6.64,61.93-25.97,122.44-55.18,177.71l-5.48,10.38
				l-6.01,10.09c-4.02,6.72-7.87,13.46-12.52,20.17c-9.11,13.34-19.77,26.6-34.12,37.67c-7.15,5.5-15.38,10.33-24.56,13.61
				l-3.45,1.2c-1.32,0.42-2.87,0.83-4.28,1.13c-2.88,0.63-5.68,0.97-8.35,1.13c-2.68,0.16-5.22,0.14-7.64,0.02l-6.24-0.43
				c-13.21-1.05-26.85-0.17-40.43,2.25c-27.18,4.76-54.11,15.2-78.99,28.7c-24.18,13.18-45.29,31.76-62.32,53.53l-3.49,4.48
				c-1.26,1.66-2.59,3.27-3.92,4.88c-2.66,3.22-5.47,6.34-8.34,9.4c-5.8,6.08-12.04,11.81-18.7,17.07
				c-6.66,5.27-13.78,10.04-21.29,14.21c-3.73,2.12-7.6,4.01-11.52,5.8l-4.85,2.27c-1.51,0.74-3.07,1.37-4.54,2.2
				c-24.04,12.28-45.16,30.96-62,53.06c-8.45,10.94-16,23.09-22.19,35.23c-5.99,12.28-10.73,25.25-13.82,38.67
				c-3.22,13.39-4.76,27.21-4.95,41.02c-0.07,6.91,0.29,13.82,0.94,20.7l1.34,10.83c0.55,4.18,0.92,8.39,1.1,12.6
				c0.82,16.85-1.03,33.82-5.49,50.08c-2.23,8.13-5.1,16.08-8.59,23.75c-0.86,1.93-1.76,3.83-2.73,5.7l-2.67,5.2
				c-1.67,3.11-3.23,6.29-4.77,9.48c-6.07,12.8-11.1,26.17-15.02,39.87c-3.94,13.69-7.01,27.67-8.75,41.82
				c-1.71,14.3-2.31,27.99-0.92,41.95c1.41,13.89,4.55,27.7,9.43,40.92c9.81,26.36,26.68,50.5,50.41,67.24l0.05,0.04
				c2.48,1.75,3.07,5.18,1.32,7.66c-1.56,2.22-4.48,2.93-6.85,1.79c-28.72-13.69-51.55-38.97-65.42-67.95
				c-1.82-3.6-3.25-7.37-4.9-11.07c-1.49-3.75-2.77-7.58-4.15-11.39c-1.1-3.88-2.24-7.77-3.24-11.7c-0.82-3.96-1.82-7.9-2.47-11.91
				c-2.85-15.95-3.33-32.65-2.09-48.37c2.22-31.83,10.18-63.08,23.09-92.4c1.63-3.66,3.29-7.31,5.09-10.9l2.4-4.92
				c0.75-1.49,1.44-3.01,2.09-4.54c2.67-6.11,4.84-12.43,6.5-18.88c3.32-12.9,4.58-26.33,3.72-39.62c-0.19-3.32-0.53-6.64-1.02-9.93
				l-1.6-11.61c-0.9-8.13-1.45-16.31-1.49-24.49c-0.04-16.36,1.55-32.76,5.13-48.78c3.44-16.05,8.86-31.7,15.89-46.65
				c7.32-14.84,15.52-28.6,25.41-41.64c19.55-25.95,44.5-48.58,74.2-64.01c1.82-1.02,3.75-1.85,5.62-2.77l5.39-2.56
				c2.93-1.36,5.85-2.8,8.66-4.43c5.67-3.2,11.11-6.87,16.25-11.01c5.15-4.12,10.04-8.65,14.63-13.52c2.27-2.46,4.51-4.96,6.63-7.58
				c1.06-1.31,2.13-2.61,3.15-3.96l3.44-4.47c19.85-26,45.35-47.78,74.26-63.42c28.22-15.06,58.34-26.69,90.72-32.23
				c16.14-2.76,32.86-3.83,49.75-2.39l5.05,0.39c1.34,0.07,2.59,0.09,3.67,0.02c1.1-0.06,2.05-0.18,2.86-0.33
				c0.44-0.09,0.72-0.14,1.2-0.29l1.9-0.64c5.08-1.71,10.12-4.44,14.97-8.07c9.75-7.23,18.66-17.49,26.67-28.92
				c4.06-5.63,7.79-11.95,11.62-18.12l5.73-9.27l5.23-9.57c14.03-25.47,25.69-52.3,34.86-79.99l6.42-20.93l5.43-21.21
				c1.71-7.1,3.06-14.28,4.61-21.42c1.58-7.14,2.41-14.41,3.66-21.62c8.98-57.87,8.9-117.14,0.73-176.51l-0.01-0.04
				c-0.41-3.01,1.69-5.79,4.7-6.2C2320.28,1407.99,2322.74,1409.57,2323.58,1411.99z"/>
		</g>
		<g>
			<path class="st1" d="M1564.97,2221.15c11.18-4.05,24.17-2.72,35.31,1.87c11.25,4.6,21.14,12.34,28.64,22.32
				c7.34,9.72,12.21,20.93,15.22,32.09c3.02,11.21,4.33,22.45,4.7,33.38c0.73,21.81-1.77,41.78-2.11,60.55
				c-0.3,18.68,1.29,36.73,9.28,54.24l0.08,0.17c1.29,2.83,0.04,6.17-2.79,7.46c-1.92,0.88-4.09,0.58-5.68-0.59
				c-9.19-6.78-15.91-16.64-20.76-26.94c-4.77-10.4-7.63-21.46-9.12-32.45c-2.99-21.95-1.3-42.7-1.58-61.62
				c-0.24-18.81-2.52-36.65-10.12-51.38c-7.39-14.07-21.39-26.67-39.36-28.28l-0.29-0.03c-3.07-0.27-5.33-2.98-5.06-6.05
				C1561.51,2223.67,1563,2221.87,1564.97,2221.15z"/>
		</g>
		<g>
			<path class="st1" d="M2332.68,1178.42c23.53,9.65,44.9,24.27,63.21,41.74c18.37,17.46,33.61,38.02,45.36,60.22
				c11.83,22.18,19.92,46.25,23.86,70.83c3.84,24.57,3.49,49.8-2.31,73.54c-0.73,2.97-3.72,4.79-6.7,4.07
				c-2.4-0.59-4.05-2.66-4.21-5l0-0.05c-1.54-23.13-5.56-45.39-12.34-66.64c-6.67-21.25-16.05-41.39-27.52-60.08
				c-11.55-18.65-25.45-35.66-41.13-50.67c-15.72-14.99-33.35-27.73-52.33-38.27l-0.13-0.07c-7.95-4.41-10.81-14.43-6.39-22.38
				C2316.14,1178.28,2325.07,1175.29,2332.68,1178.42z"/>
		</g>
		<g>
			<path class="st1" d="M2201.6,1955.22c-0.98,16.7-6.86,32.83-15.37,47.27c-8.51,14.51-19.95,27.27-33.12,37.76
				c-13.17,10.5-28.12,18.79-44.01,24.12c-15.89,5.24-32.75,7.74-49.22,5.72c-3.11-0.38-5.32-3.21-4.94-6.32
				c0.25-2.03,1.55-3.69,3.29-4.48l0.11-0.05c14.12-6.38,27.17-12.73,39.47-20.12c12.31-7.29,23.86-15.38,34.68-24.33
				c10.82-8.96,20.88-18.73,30.56-29.2c9.68-10.52,18.65-21.82,28.27-34.15l0.07-0.09c1.94-2.49,5.54-2.93,8.03-0.99
				C2200.94,1951.57,2201.69,1953.42,2201.6,1955.22z"/>
		</g>
		<g>
			<path class="st1" d="M2631.92,1273.59c16.04,10.44,28.52,25.76,37.72,42.65c9.12,17,14.74,35.87,16.87,55.05
				c2.18,19.17,1.11,38.73-3.55,57.35c-4.64,18.58-12.74,36.35-24.69,50.94c-1.97,2.4-5.5,2.75-7.9,0.79
				c-1.72-1.41-2.38-3.61-1.91-5.64l0.02-0.09c4.09-17.16,6.76-33.72,7.69-50.26c0.92-16.5,0.26-32.86-2.06-48.96
				c-2.38-16.09-6.21-31.87-11.32-47.46c-5.02-15.69-11.62-30.89-19.09-47.14l-0.05-0.1c-1.31-2.85-0.06-6.23,2.8-7.54
				C2628.27,1272.35,2630.34,1272.58,2631.92,1273.59z"/>
		</g>
		<g>
			<path class="st1" d="M2483.83,1530.31c4.87,13.77,6.46,27.84,6.82,41.85c0.24,14.02-1.21,27.99-3.92,41.69
				c-2.7,13.71-6.46,27.23-11.6,40.25c-5.13,13.02-11.4,25.65-19.81,37.21c-1.86,2.55-5.44,3.12-7.99,1.26
				c-1.59-1.16-2.41-2.98-2.35-4.8l0-0.07c0.51-14,2.13-27.29,3.84-40.47c1.69-13.17,3.72-26.13,5.74-39.08
				c2.01-12.95,4.22-25.83,7.03-38.77c2.93-12.94,6.03-25.93,11.29-39.23l0.02-0.04c1.19-3,4.58-4.47,7.58-3.28
				C2482.1,1527.47,2483.28,1528.79,2483.83,1530.31z"/>
		</g>
		<g>
			<path class="st1" d="M2432.97,1773.43c-8.49,32.44-17.99,64.52-27.61,96.56c-9.74,32.03-19.52,63.86-30.44,95.9
				c-5.61,15.95-11.63,31.85-18.29,47.62c-6.56,15.8-14.05,31.35-22.49,46.48c-8.36,15.2-17.85,29.89-28.28,43.97
				c-10.53,14.01-22.39,27.14-35.27,39.31c-12.99,12.06-27.17,23.04-42.52,32.31c-15.38,9.27-32.18,16.49-49.46,21.53
				c-17.34,4.95-35.33,7.83-53.49,7.89c-9.07,0.08-18.17-0.74-27.17-2.08c-4.51-0.66-8.97-1.6-13.42-2.63
				c-4.07-0.95-7.43-1.73-11.23-2.35c-14.8-2.37-30.01-2.12-44.42,1.51c-7.25,1.78-14.07,4.48-20.82,7.97
				c-6.8,3.6-13.33,7.68-19.26,12.37c-23.52,19.15-39.58,48.97-43.36,80.66l-0.01,0.06c-0.36,3.01-3.09,5.16-6.1,4.8
				c-2.78-0.33-4.82-2.69-4.84-5.42c-0.19-35.03,14.17-70.41,40.68-95.76c6.69-6.27,14.01-11.69,21.72-16.36
				c7.8-4.71,16.38-8.77,25.22-11.54c17.71-5.76,36.61-7.2,54.88-5c4.48,0.5,9.32,1.39,13.42,2.16c3.74,0.68,7.48,1.3,11.27,1.67
				c7.56,0.76,15.19,1.12,22.83,0.69c15.27-0.61,30.52-3.38,45.18-8.04c29.36-9.32,55.8-26.54,78.64-48.06
				c11.33-10.87,21.77-22.78,31.33-35.48c9.61-12.66,18.46-26,26.37-39.99c15.8-28.05,29.35-57.81,41.39-88.58
				c6.25-15.29,12.21-30.82,18.19-46.41c5.96-15.61,12.25-31.12,18.36-46.68c12.47-31.04,25.05-62.05,38.65-92.69
				c1.23-2.77,4.48-4.03,7.25-2.79C2432.38,1768.12,2433.64,1770.86,2432.97,1773.43z"/>
		</g>
		<g>
			<path class="st1" d="M2176.37,2261c6.77,11.75,10.24,24.95,11.7,38.3c1.35,13.38,0.5,27-2.36,40.19
				c-2.83,13.19-7.73,25.95-14.68,37.5c-6.95,11.51-15.79,21.98-27.13,29.58c-2.68,1.79-6.3,1.08-8.09-1.6
				c-0.96-1.44-1.2-3.15-0.8-4.7l0.04-0.15c3.26-12.45,6.85-23.6,10.01-34.74c3.16-11.11,6.07-22.01,8.64-33.03
				c2.54-11.03,4.68-22.15,6.5-33.57l5.42-35.71l0.01-0.05c0.48-3.17,3.43-5.34,6.6-4.86
				C2174.02,2258.43,2175.52,2259.53,2176.37,2261z"/>
		</g>
		<g>
			<path class="st1" d="M2912.85,1877.58c7.28,40.81-1.7,84.83-25.62,120.46c-11.58,17.24-25.15,33.57-41.74,47.5
				c-16.5,13.85-36.54,25.34-59.34,30.22l-0.07,0.02l13.59-15.18c-1.25,19.86-7.9,38.93-18.5,55.32
				c-10.62,16.39-25.23,30.28-43,39.54c-18.08,9.24-37.44,12.76-56.53,12.74c-19.09-0.17-38.36-3.91-56.35-13.26l-0.16-0.08
				l24.09-15.66c1.45,21.14-3.39,42.14-12.92,60.53c-9.53,18.38-23.96,34.45-42.05,45.39c-17.6,10.58-37.19,17.06-57.71,18.85
				c-20.37,1.74-42.37-1.51-61.49-12.76l-0.27-0.14l23.75-8.28c-15.79,41.3-46.89,75.98-86.33,96.08
				c-20.13,10.18-41.92,15.54-63.66,17.3c-21.78,1.73-43.66-0.11-64.88-5.49l-0.32-0.08l20.41-13.99
				c-6.16,36.58-22.69,70.21-45.72,97.46c-23.03,27.27-52.85,48.42-85.88,59.9c-2.86,0.99-5.99-0.52-6.98-3.38
				c-0.93-2.66,0.36-5.58,2.85-6.77c29.69-14.07,54.7-36.49,72.59-63.02c17.91-26.52,28.77-57.34,30.52-88.04
				c0.49-8.59,7.85-15.15,16.44-14.66c0.81,0.05,1.6,0.15,2.37,0.32l1.61,0.36l0.27,0.06c17.54,4.46,36.05,6.02,54.13,4.57
				c18.07-1.45,35.81-5.94,51.41-13.85c31.9-16.17,57.77-44.99,70.48-78.46c3.21-8.46,12.68-12.72,21.15-9.51
				c0.59,0.22,1.15,0.47,1.69,0.75l0.91,0.47l0.17,0.09c11.87,7.03,26.9,9.63,42.03,8.33c15.14-1.28,30.41-6.32,43.44-14.2
				c12.57-7.59,23-19.06,29.92-32.42c6.94-13.34,10.34-28.52,9.31-43.12c-0.63-9.04,6.18-16.89,15.23-17.52
				c2.89-0.2,5.65,0.35,8.1,1.5l0.76,0.36l0.11,0.05c11.97,6.29,26.69,9.4,41.21,9.46c14.53,0.07,29.23-2.86,41.2-9.05
				c12.16-6.31,22.86-16.32,30.52-28.2c7.7-11.88,12.44-25.69,13.3-39.51l0.01-0.19c0.48-7.7,6.27-13.81,13.58-14.99l0.05-0.01
				c16.68-1.93,33.26-9.13,48.3-19.57c15.08-10.44,28.7-23.89,40.77-38.76c23.45-28.72,35.71-67.64,32.41-106.03
				c-0.27-3.02,1.96-5.68,4.97-5.95C2909.8,1872.83,2912.34,1874.83,2912.85,1877.58z"/>
		</g>
		<g>
			<path class="st1" d="M3015.95,1778.68c-2.51-4.8-7.43-9.16-13.84-11.87c-6.38-2.73-14.03-3.83-21.42-2.9
				c-15.42,1.9-30.83,11.83-42.82,25.02l-0.02,0.03c-2.04,2.25-5.52,2.41-7.77,0.37c-1.98-1.8-2.34-4.73-1-6.93
				c5.12-8.4,11.34-16.35,18.98-23.3c7.61-6.92,16.76-12.84,27.29-16.43c10.76-3.62,22.45-4.5,34.11-2.24
				c11.57,2.25,23.52,8.03,32.49,18.14l1.2,1.35c6.1,6.87,5.48,17.39-1.4,23.49c-6.87,6.1-17.39,5.48-23.49-1.4
				C3017.35,1780.99,3016.56,1779.82,3015.95,1778.68z"/>
		</g>
		<g>
			<path class="st1" d="M2899.56,1666.45c-13.74,11.72-26.1,23.41-36.95,36.19c-10.86,12.71-20.21,26.3-27.86,40.72
				c-7.65,14.42-13.66,29.78-18.09,45.9c-4.5,16.15-7.25,32.94-9.24,50.89l-0.01,0.09c-0.34,3.09-3.13,5.32-6.23,4.98
				c-2.13-0.24-3.85-1.64-4.6-3.49c-7.22-17.89-9.34-37.75-7.66-57.28c1.75-19.55,7.47-38.92,16.79-56.5
				c9.32-17.58,22.15-33.18,37.36-45.59c15.22-12.34,32.86-21.72,51.72-25.78c3.04-0.66,6.04,1.28,6.7,4.33
				c0.45,2.09-0.32,4.17-1.85,5.47L2899.56,1666.45z"/>
		</g>
		<g>
			<path class="st1" d="M2818.64,1478.51c13.05,16.45,21.69,38.01,21.85,60.35c0.21,11.12-1.31,22.31-4.41,33.06l-2.63,8
				c-1,2.63-2.2,5.19-3.31,7.79c-1.22,2.56-2.6,5.08-3.93,7.62c-1.59,2.49-2.93,4.99-4.8,7.46l-2.75,3.71l-3.43,3.79
				c-1.15,1.26-3.15,2.8-4.78,4.08c-1.48,1.04-2.67,1.78-4.05,2.64c-5.38,3.25-11.17,5.6-17.01,7.34
				c-11.72,3.47-23.63,4.25-35.16,3.49c-5.65-0.35-11.94-1.49-15.58-1.87c-4.21-0.53-8.47-0.74-12.69-0.62
				c-8.45,0.21-16.86,1.46-24.85,3.99c-16.02,4.94-30.41,14.53-40.8,27.6c-1.33,1.61-2.5,3.35-3.78,5.01
				c-1.27,1.74-2.54,3.77-3.75,5.68c-2.43,3.89-4.73,7.87-6.83,11.95c-4.21,8.23-7.72,16.48-10.75,25.4
				c-12.12,35.79-16,75.17-20.14,115.03c-0.31,3.03-3.02,5.23-6.05,4.92c-2.6-0.27-4.59-2.31-4.91-4.79
				c-5.07-39.97-6.35-81.69,3.98-123.07c2.4-10.35,6.08-20.86,10.58-30.66c2.23-4.95,4.68-9.78,7.31-14.53
				c1.34-2.39,2.62-4.68,4.16-7.08c1.61-2.42,3.15-4.9,4.88-7.25c13.9-18.83,34.17-32.84,56.42-39.58
				c11.13-3.36,22.72-5.15,34.28-5.09c11.28-0.21,24.22,2.5,31.39,3.6c8.37,0.99,16.79,0.8,24.4-1.06c3.82-0.9,7.39-2.25,10.78-3.83
				l2.37-1.25c0.29-0.32,0.42-0.15,1-0.69l1.78-1.62l1.91-2.18c5.27-6.03,9.52-14.1,13.04-22.13c3.47-8.17,5.59-16.88,6.62-25.74
				c0.73-4.44,0.6-8.91,0.7-13.44c-0.49-4.45-0.53-9.06-1.6-13.51c-1.36-9.13-4.97-17.8-8.7-26.65l-0.14-0.34
				c-1.18-2.8,0.13-6.03,2.93-7.21C2814.52,1475.88,2817.14,1476.62,2818.64,1478.51z"/>
		</g>
		<g>
			<path class="st1" d="M2598.26,1906.03c1.61,6.06,2.28,12.42,2.24,18.83c-0.13,6.4-1.17,12.74-2.59,19.01
				c-3.16,12.45-8.8,24.07-15.79,34.58c-6.96,10.52-15.66,19.92-24.64,28.13c-9.07,8.19-18.6,15.42-28.1,22.13
				c-19.04,13.43-37.87,24.82-54.17,38.36c-16.4,13.53-30.75,28.79-39.91,48.63l-0.06,0.13c-1.29,2.79-4.6,4.01-7.4,2.72
				c-2.1-0.97-3.31-3.09-3.23-5.27c0.23-6.19,1.31-12.38,2.97-18.44c1.7-6.05,4.16-11.84,6.86-17.52
				c5.65-11.22,13.11-21.33,21.35-30.45c16.68-18.29,36.42-31.96,54.62-44.96c18.3-13.06,35.61-25.38,49.25-40.67
				c13.7-15.34,24.51-33.02,27.67-54.4l0.03-0.19c0.45-3.05,3.28-5.15,6.33-4.7C2595.95,1902.28,2597.7,1903.95,2598.26,1906.03z"/>
		</g>
		<g>
			<path class="st1" d="M2712.91,2414.4c-57.87-20.57-121.35-28.09-184.05-21.09c-3.01,0.34-5.73-1.82-6.07-4.83
				c-0.32-2.8,1.54-5.35,4.23-5.97c63.12-14.48,130.3-14.63,195.04,0.32l0.07,0.02c8.86,2.04,14.38,10.89,12.34,19.74
				c-2.05,8.86-10.89,14.38-19.75,12.34C2714.1,2414.79,2713.49,2414.61,2712.91,2414.4z"/>
		</g>
		<g>
			<path class="st1" d="M2562.29,2552.5c-72.59-32.39-161.79-31.48-236.23,4.92c-2.72,1.34-6,0.22-7.34-2.5
				c-1.26-2.57-0.3-5.66,2.1-7.12c73.93-44.37,168.72-55.04,253.45-25.9l0.08,0.03c8.59,2.96,13.16,12.32,10.21,20.91
				s-12.32,13.16-20.91,10.21C2563.19,2552.88,2562.72,2552.7,2562.29,2552.5z"/>
		</g>
		<g>
			<path class="st1" d="M1980.36,2392.41c-1.15,32.23,3.86,65.1,14.2,94.96c10.19,30.08,26.52,57.3,47.23,80.57
				c10.56,11.49,22.25,21.9,34.57,31.58l9.62,6.82l4.82,3.39l5.03,3.12l10,6.32l10.43,5.71c27.89,15.19,58.11,26.63,89.21,36.14
				l0.02,0.01c8.69,2.66,13.58,11.85,10.92,20.54c-2.52,8.23-10.97,13.04-19.23,11.26c-33.81-7.37-67.09-19.16-98.2-36.02
				c-15.72-8.08-30.4-18.34-44.54-29.18c-13.91-11.25-26.81-23.81-38.33-37.61c-22.94-27.71-39.23-60.85-47.19-95.4
				c-3.87-17.31-5.98-34.89-5.91-52.4c0.16-17.57,1.74-34.74,6.59-51.96c0.82-2.92,3.85-4.61,6.77-3.79c2.49,0.7,4.08,3,4,5.47
				L1980.36,2392.41z"/>
		</g>
		<g class="st6">
			<path class="st1" d="M2090.68,1387.96c-21.44,3.33-35.28,25.84-37.53,47.42s3.95,43.02,7.15,64.48
				c8.7,58.24-7.79,123.11-53.78,159.89c-77.94,62.33-204.74,24.16-281.81,87.56c-43.47,35.76-96.89,57.83-117.12,110.35
				c-21.3,55.31-17.63,123.71-60.51,164.62c-25.62,24.44-65.38,32.84-98.7,20.86c-16.8-6.04-31.79-16.71-49-21.46
				c-17.21-4.75-38.95-1.35-47.45,14.35c2.66,8.13,8.54,16.23,15.68,20.94c39.22,25.93,81.31,56.86,128.08,61.58
				c46.78,4.72,97.4-12.47,124.66-50.78c19.91-27.98,25.6-63.37,29.91-97.44s8.13-69.35,25.22-99.13c17.09-29.78,51.6-52.66,85-44.7
				c98.15-39.31,204.23-67.85,307.03-92.54c54.56-13.1,86.98-70.91,104.42-124.24c11.28-34.49-4-75.19-15.32-109.67
				C2143.26,1459.41,2114.25,1423.69,2090.68,1387.96z"/>
		</g>
		<g class="st6">
			<path class="st1" d="M1287.09,2162.59c20.08,3.24,35.52,18.75,50.72,32.27c26.62,23.68,57.22,43.62,91.35,53.84
				c34.13,10.22,72.07,10.11,104.49-4.66c9.04-4.12,17.77-9.38,27.57-11.02c9.8-1.63,21.33,1.51,25.82,10.37
				c6.67,13.14-5.48,27.82-17.22,36.72c-52.82,40.05-121.4,60.16-186.97,50.43c-50.47-7.49-98.4-33.26-131.8-71.93
				c-14.34-16.6-27.62-33.53-20.18-55.97C1238.98,2178.16,1259.75,2158.18,1287.09,2162.59z"/>
		</g>
		<g class="st6">
			<path class="st1" d="M2323.35,1431.87c-17.59-1.3-33.5,12.35-40.7,28.46c-7.19,16.11-7.61,34.3-8.21,51.93
				c-1.42,42.22-4.54,84.73-15.77,125.46s-31.07,79.89-61.93,108.75c-55.71,52.09-137.07,63.23-206.51,94.78
				c-57.52,26.13-107.54,66.8-162.1,98.3c-56.61,32.68-96.1,88.69-105.59,153.36c-0.18,1.21-0.35,2.42-0.51,3.63
				c-6.81,49.78-3.6,100.38-1.17,150.48c0.43,8.75,2.64,17.42,7.24,24.88c20.38,33.06,57.48,12.5,66.88-14.31
				c7.42-21.18,3.29-44.38,1.68-66.77c-3.25-45.25,4.41-91.26,22.16-133.01c38.51-12.47,74.75-39.51,105.29-66.08
				c30.54-26.57,58.9-55.73,91.16-80.18c32.26-24.45,69.35-44.35,109.58-48.84c32.44-3.63,70.18-7.2,96.15-26.97
				c18.96-14.44,30.57-36.28,41.59-57.41c15.98-30.64,31.96-61.29,47.94-91.93C2349.66,1611.33,2335.39,1515.66,2323.35,1431.87z"/>
		</g>
		<g class="st6">
			<path class="st1" d="M1920.91,1234.76c-0.46,10.39,3.64,29.55,3.76,39.93c22.53-27.62,57.18-49.23,92.3-55.32
				c34.25-5.93,69.32,0.2,104.08-0.23c57.93-0.72,117.28-22.68,172.12-41.38c-17.35-20.9-38.48-38.65-62.06-52.15
				c-16.22-9.28-37.88-16.12-52.47-4.45c-6.58,5.26-10.26,13.37-16.38,19.17c-13.71,13.01-35.27,11.32-53.99,8.79
				c-27.25-3.69-54.51-7.37-81.76-11.06c-16.9-2.29-34.44-4.52-50.71,0.58c-23.75,7.44-40.53,29.63-48.08,53.35
				c-4.72,14.84-2.85,31.7-7.65,45.88c-5.17,15.29-19.68,32.69-31.23,43.64c-13.88,13.17-32.88,22.28-51.86,19.83
				c-34.52-4.45-60.67-44.7-94.84-38.11c-28.5,5.49-41.51,40.43-67.93,52.45c-17.94,8.16-39.4,4.48-57.69,11.84
				c-16.36,6.58-28.18,21.27-36.3,36.92c-8.12,15.65-13.25,32.68-20.78,48.62c-18.62,39.44-52.34,71.53-92.66,88.16
				c-17.09,7.05-31.73,22.51-37.37,40.11c-5.64,17.6-6.27,36.37-9.57,54.56c-3.31,18.19-10.04,36.91-24.57,48.34
				c-16.54,13.01-39.45,13.87-58.5,22.83c-21.61,10.16-37.61,31.44-41.38,55.02c-1.2,7.5-4.58,11.88-11.44,15.16
				c-6.86,3.28-14.51,4.54-21.48,7.58c-16.33,7.13-27.06,23.31-33.06,40.09c-6.01,16.77-8.18,34.65-12.79,51.86
				c-4.61,17.21-12.26,34.5-26.36,45.39c-29.9,23.08-66.08,46.22-65.44,83.99c0.34,20,7.8,40.16,3.16,59.62
				c-7.51,31.49-43.01,48.32-56.52,77.74c-14.39,31.33,3.83,73.22,36.55,84.06c7.73,2.56,12.44,9.32,16.27,16.51
				c3.82,7.19,5.75,15.22,7.44,23.19c6.59,31.08,10.18,62.79,10.71,94.55c20.4-33.84,40.67-65.4,52.18-103.19
				c17.5-57.43,12.91-118.96,8.16-178.81c31.31-43.38,40.66-98.72,67.55-144.97c18.98-32.65,47.85-59.45,81.81-75.95
				c26.2-12.73,34.12-50.56,45.54-77.35c20.49-48.07,51.18-91.76,89.46-127.34c36.46-33.9,63.17-77.82,102.59-108.22
				c29.85-23.02,59.69-46.04,89.54-69.05c53.18-41.01,111.13-83.83,178.24-86.31c17.42-25.59,44.28-50.47,68.14-70.2
				C1934.17,1273.35,1921.2,1245.85,1920.91,1234.76z"/>
		</g>
		<g class="st6">
			<path class="st1" d="M2240.66,1281.98c13.84,6.82,22.17,21.13,28.89,35.01c5.76,11.87,11.03,24.43,11.17,37.62
				c0.11,10.07-4.16,21.52-13.74,24.63c-8.45,2.74-17.58-2.14-23.83-8.45c-9.02-9.13-14.37-21.14-20.62-32.34
				c-6.25-11.21-14.18-22.35-25.93-27.51c-4.78-2.1-10.13-3.18-14.24-6.4c-15.06-11.81,5.09-19.78,14.24-22.57
				C2210.85,1277.61,2226.74,1275.12,2240.66,1281.98z"/>
		</g>
		<g class="st6">
			<path class="st1" d="M2381.81,1245.27c-10.24,12.34-12.37,29.78-9.82,45.62c2.55,15.83,9.22,30.65,14.98,45.62
				c27.53,71.59,34.83,149.85,29.35,226.35s-23.4,151.6-44.97,225.2c-11.27,38.48-28.67,80.46-49.32,114.83
				c-20.65,34.36-45.07,66.41-64.58,101.44c-6.15,11.04-11.89,22.68-13.12,35.26c-1.23,12.57,2.91,26.36,13.22,33.66
				c10.31,7.3,27.03,5.31,33.01-5.81c22.13-6.34,42.72-24.13,51.6-45.37c8.88-21.24,11.83-44.39,16.58-66.91
				c4.75-22.53,11.79-45.46,27.09-62.66c49.06-55.16,44.29-139.82,66.8-210.12c32.04-100.06,33.21-210.49,6.65-312.15
				c-6.9-26.42-5.38-52.77-16.27-77.81C2432.12,1267.38,2408.58,1250.69,2381.81,1245.27z"/>
		</g>
		<g class="st6">
			<path class="st1" d="M2596.81,1500.49c28.04,8.05,51.99-10.86,62.77-34.18c7.97-17.26,9.72-36.71,9.86-55.72
				c0.41-53.45-12.66-109.6-46.71-149.99c-11.9-14.11-34.4-14.35-45.47,0.42c-0.54,0.72-1.04,1.46-1.49,2.21
				c-6.35,10.45-7.32,23.47-5.27,35.53c2.05,12.06,6.87,23.45,11.48,34.78c16.07,39.47,30.16,83.74,15.85,123.88
				c-2.43,6.82-5.65,13.39-7.21,20.45c-1.46,6.64-1.26,14.02,2.25,19.77C2593.75,1499.06,2595.23,1500.04,2596.81,1500.49z"/>
		</g>
		<g class="st3">
			<path class="st4" d="M2524.93,1595.93c-0.36,4.65,0.06,9.48,2.14,13.65s6.03,7.59,10.66,8.17c6.7,0.84,12.77-4.21,16.47-9.86
				c6.49-9.94,12.36-36.45-1.95-43.1C2536.67,1557.55,2525.8,1584.75,2524.93,1595.93z"/>
		</g>
		<g class="st3">
			<path class="st4" d="M2470.08,1809.78c3.44,12.15,19.12,15.46,28.53,7.03c15.61-13.98,26.35-33.22,32.92-53.28
				c7.8-23.8,10.28-48.96,12.72-73.89c1.25-12.79,2.37-26.41-6.26-37.19c-4.42-5.52-11.59-8.62-18.46-6.96
				c-17.57,4.24-14.64,30.56-14.09,47.29c0.92,27.86-6.51,55.95-21.08,79.71c-5.92,9.66-13.18,19.1-14.76,30.32
				C2469.26,1805.23,2469.45,1807.58,2470.08,1809.78z"/>
		</g>
		<g class="st3">
			<path class="st4" d="M1499.63,1803.83c-3.92,7.51-6.04,16.41-3.63,24.53c2.42,8.12,10.3,14.92,18.74,14.12
				c7.43-0.7,13.42-6.91,16.1-13.88c2.68-6.97,2.71-14.63,2.7-22.1c-0.01-3.47-0.08-7.18-2.02-10.06
				C1522.56,1783.13,1504.93,1793.67,1499.63,1803.83z"/>
		</g>
	</g>
</g>
</svg>
