<svg class="Pessoa" xmlns="http://www.w3.org/2000/svg" xmlns:xlink="http://www.w3.org/1999/xlink" viewBox="0 0 281.42 323.4"><defs><style>
                            .clsx-1 {
                                fill: #020230;
                                opacity: 0.6;
                            }

                            .clsx-2 {
                                fill: url(#Áåçûìÿííûé_ãðàäèåíò_343);
                            }

                            .clsx-3 {
                                fill: url(#Áåçûìÿííûé_ãðàäèåíò_113);
                            }

                            .clsx-4 {
                                fill: url(#Áåçûìÿííûé_ãðàäèåíò_343-2);
                            }

                            .clsx-5 {
                                fill: url(#Áåçûìÿííûé_ãðàäèåíò_343-3);
                            }

                            .clsx-6 {
                                fill: #fff;
                            }

                            .clsx-7 {
                                fill: #e8975b;
                            }

                            .clsx-8 {
                                fill: #f8359e;
                            }

                            .clsx-11,
                            .clsx-9 {
                                fill: #06033e;
                            }

                            .clsx-10,
                            .clsx-9 {
                                opacity: 0.4;
                            }

                            .clsx-12 {
                                opacity: 0.8;
                            }

                            .clsx-13 {
                                fill: #9a93f4;
                            }

                            .clsx-14 {
                                fill: url(#Áåçûìÿííûé_ãðàäèåíò_113-2);
                            }

                            .clsx-15 {
                                fill: url(#Áåçûìÿííûé_ãðàäèåíò_343-4);
                            }

                            .clsx-16 {
                                fill: url(#Áåçûìÿííûé_ãðàäèåíò_343-5);
                            }

                            .clsx-17 {
                                fill: url(#Áåçûìÿííûé_ãðàäèåíò_462);
                            }

                            .clsx-18 {
                                fill: url(#Áåçûìÿííûé_ãðàäèåíò_462-2);
                            }

                            .clsx-19 {
                                fill: url(#Áåçûìÿííûé_ãðàäèåíò_462-3);
                            }

                            .clsx-20 {
                                fill: url(#Áåçûìÿííûé_ãðàäèåíò_343-6);
                            }

                            .clsx-21 {
                                fill: #f0f6ff;
                            }

                            .clsx-22 {
                                fill: #fcd1c5;
                            }

                            .clsx-23 {
                                fill: url(#Áåçûìÿííûé_ãðàäèåíò_343-7);
                            }

                            .clsx-24 {
                                fill: url(#Áåçûìÿííûé_ãðàäèåíò_343-8);
                            }

                            .clsx-25 {
                                fill: #aa8383;
                            }

                            .clsx-26 {
                                fill: #c4ccd6;
                            }

                            .clsx-27 {
                                fill: url(#Áåçûìÿííûé_ãðàäèåíò_343-9);
                            }

                            .clsx-28 {
                                fill: #e2b1a6;
                            }

                            .clsx-29 {
                                fill: #936d6d;
                            }
                        </style><radialGradient id="Áåçûìÿííûé_ãðàäèåíò_343" cx="455.24" cy="2521.49" r="43.67" gradientTransform="translate(2621.77 -137.06) rotate(96.78)" gradientUnits="userSpaceOnUse"><stop offset="0" stop-color="#e39a65"></stop><stop offset="0.47" stop-color="#a92ffb"></stop><stop offset="0.59" stop-color="#891cfb"></stop><stop offset="0.73" stop-color="#6507fa"></stop><stop offset="1" stop-color="#3919bb"></stop></radialGradient><radialGradient id="Áåçûìÿííûé_ãðàäèåíò_113" cx="145.18" cy="75.19" r="197.93" gradientUnits="userSpaceOnUse"><stop offset="0" stop-color="#e39a65"></stop><stop offset="0.47" stop-color="#a92ffb"></stop><stop offset="0.59" stop-color="#891cfb"></stop><stop offset="0.74" stop-color="#6507fa"></stop><stop offset="0.8" stop-color="#0d0c6f"></stop></radialGradient><radialGradient id="Áåçûìÿííûé_ãðàäèåíò_343-2" cx="97.35" cy="110.51" r="401.63" gradientTransform="matrix(1, 0, 0, 1, 0, 0)" xlink:href="#Áåçûìÿííûé_ãðàäèåíò_343"></radialGradient><radialGradient id="Áåçûìÿííûé_ãðàäèåíò_343-3" cx="-214.87" cy="31.49" r="623.7" gradientTransform="matrix(1, 0, 0, 1, 0, 0)" xlink:href="#Áåçûìÿííûé_ãðàäèåíò_343"></radialGradient><radialGradient id="Áåçûìÿííûé_ãðàäèåíò_113-2" cx="62.97" cy="87.53" r="197.93" xlink:href="#Áåçûìÿííûé_ãðàäèåíò_113"></radialGradient><radialGradient id="Áåçûìÿííûé_ãðàäèåíò_343-4" cx="15.14" cy="122.84" r="401.63" gradientTransform="matrix(1, 0, 0, 1, 0, 0)" xlink:href="#Áåçûìÿííûé_ãðàäèåíò_343"></radialGradient><radialGradient id="Áåçûìÿííûé_ãðàäèåíò_343-5" cx="-77.21" cy="116.87" r="355.38" gradientTransform="matrix(1, 0, 0, 1, 0, 0)" xlink:href="#Áåçûìÿííûé_ãðàäèåíò_343"></radialGradient><linearGradient id="Áåçûìÿííûé_ãðàäèåíò_462" x1="213.76" y1="290.3" x2="198.08" y2="278.83" gradientUnits="userSpaceOnUse"><stop offset="0" stop-color="#2d0979"></stop><stop offset="1" stop-color="#5b04f7"></stop></linearGradient><linearGradient id="Áåçûìÿííûé_ãðàäèåíò_462-2" x1="239.35" y1="305.4" x2="213.25" y2="292.82" xlink:href="#Áåçûìÿííûé_ãðàäèåíò_462"></linearGradient><linearGradient id="Áåçûìÿííûé_ãðàäèåíò_462-3" x1="262.54" y1="278.8" x2="206.14" y2="262.58" xlink:href="#Áåçûìÿííûé_ãðàäèåíò_462"></linearGradient><radialGradient id="Áåçûìÿííûé_ãðàäèåíò_343-6" cx="212.89" cy="182.06" r="116.89" gradientTransform="matrix(1, 0, 0, 1, 0, 0)" xlink:href="#Áåçûìÿííûé_ãðàäèåíò_343"></radialGradient><radialGradient id="Áåçûìÿííûé_ãðàäèåíò_343-7" cx="207.6" cy="193.42" r="120.81" gradientTransform="matrix(1, 0, 0, 1, 0, 0)" xlink:href="#Áåçûìÿííûé_ãðàäèåíò_343"></radialGradient><radialGradient id="Áåçûìÿííûé_ãðàäèåíò_343-8" cx="211.85" cy="192.39" r="78.83" gradientTransform="matrix(1, 0, 0, 1, 0, 0)" xlink:href="#Áåçûìÿííûé_ãðàäèåíò_343"></radialGradient><radialGradient id="Áåçûìÿííûé_ãðàäèåíò_343-9" cx="199.35" cy="184.65" r="45.48" gradientTransform="matrix(1, 0, 0, 1, 0, 0)" xlink:href="#Áåçûìÿííûé_ãðàäèåíò_343"></radialGradient></defs><g id="Camada_2" data-name="Camada 2"><g id="Ñëîé_1" data-name="Ñëîé 1"><path class="clsx-1" d="M2.12,60.88a36.34,36.34,0,1,0,61-36.76S52.88,13.68,34.88,13.68,9.57,24.12,9.57,24.12A36.31,36.31,0,0,0,2.12,60.88Z"></path><circle class="clsx-2" cx="52.97" cy="28.61" r="28.6" transform="translate(-7.2 26.52) rotate(-26.39)"></circle><path class="clsx-3" d="M278.09,149.17l-126-72.76a2.11,2.11,0,0,0-2.19-.14v0l-3.59,2.1,2.45,1v104a8,8,0,0,0,3.33,6.36L277.18,262l-.6,2.84,3.61-2.09,0,0a2.83,2.83,0,0,0,1.26-2.72V155.53A8,8,0,0,0,278.09,149.17Z"></path><path class="clsx-4" d="M274.36,264.67,152.3,191c-1.83-1.06-3.94-3.56-3.94-6l-3.35-96V81.1c0-2.45,1.49-3.58,3.33-2.52l126,72.76a8,8,0,0,1,3.32,6.36V262.15C277.68,264.6,276.19,265.73,274.36,264.67Z"></path><path class="clsx-5" d="M145,88.92v96.63a8,8,0,0,0,3.33,6.36l126,72.76c1.83,1.06,3.32-.07,3.32-2.52V165.52Z"></path><path class="clsx-6 none" d="M274.36,151.34l-126-72.76a2,2,0,0,0-2.68.28,2.54,2.54,0,0,1,1.4.38l126,72.76a8,8,0,0,1,3.32,6.36V262.81a3.48,3.48,0,0,1-.65,2.24c1.14,0,1.93-1.11,1.93-2.9V157.7A8,8,0,0,0,274.36,151.34Z"></path><path class="clsx-7" d="M259.5,149.77c0,1-.68,1.38-1.53.89a3.39,3.39,0,0,1-1.54-2.66c0-1,.69-1.38,1.54-.89A3.38,3.38,0,0,1,259.5,149.77Z"></path><path class="clsx-7" d="M265.07,153c0,1-.69,1.37-1.54.88a3.41,3.41,0,0,1-1.53-2.66c0-1,.69-1.38,1.53-.89A3.41,3.41,0,0,1,265.07,153Z"></path><path class="clsx-8" d="M270.64,156.2c0,1-.69,1.38-1.54.89a3.41,3.41,0,0,1-1.54-2.66c0-1,.69-1.38,1.54-.89A3.39,3.39,0,0,1,270.64,156.2Z"></path><path class="clsx-9 none" d="M252.43,230.05a4,4,0,0,1-1.94-.58L168.62,182.2c-2.48-1.43-4.5-5.27-4.5-8.55V117.42c0-1.83.63-3.24,1.72-3.87a3.21,3.21,0,0,1,3.28.22L251,161c2.48,1.44,4.5,5.27,4.5,8.56v56.22c0,1.83-.62,3.24-1.72,3.87A2.59,2.59,0,0,1,252.43,230.05ZM167.19,114.19a1.64,1.64,0,0,0-.85.23c-.78.44-1.22,1.54-1.22,3v56.23c0,3,1.79,6.41,4,7.68L251,228.6a2.22,2.22,0,0,0,2.28.23c.78-.45,1.22-1.54,1.22-3V169.6c0-3-1.79-6.42-4-7.69l-81.87-47.27A2.89,2.89,0,0,0,167.19,114.19Z"></path><g class="clsx-10"><path class="clsx-11" d="M198.55,212.38a2.88,2.88,0,0,1-1.41-.42,6.22,6.22,0,0,1-2.86-4.94,2.08,2.08,0,0,1,3.36-1.93,6.2,6.2,0,0,1,2.85,4.93,2.31,2.31,0,0,1-1,2.12A1.87,1.87,0,0,1,198.55,212.38Zm-2.33-6.72a.82.82,0,0,0-.42.11,1.37,1.37,0,0,0-.52,1.25,5.27,5.27,0,0,0,2.36,4.07,1.37,1.37,0,0,0,1.34.19,1.41,1.41,0,0,0,.51-1.26,5.3,5.3,0,0,0-2.35-4.07A1.92,1.92,0,0,0,196.22,205.66Z"></path><path class="clsx-11" d="M209.17,218.52a2.9,2.9,0,0,1-1.41-.43,6.21,6.21,0,0,1-2.85-4.94,2.07,2.07,0,0,1,3.35-1.93,6.21,6.21,0,0,1,2.85,4.94,2.28,2.28,0,0,1-1,2.11A1.75,1.75,0,0,1,209.17,218.52Zm-2.32-6.72a.85.85,0,0,0-.43.1,1.38,1.38,0,0,0-.51,1.25,5.3,5.3,0,0,0,2.35,4.08,1.1,1.1,0,0,0,1.85-1.07,5.32,5.32,0,0,0-2.35-4.08A1.86,1.86,0,0,0,206.85,211.8Z"></path><path class="clsx-11" d="M219.8,224.65a2.88,2.88,0,0,1-1.42-.42,6.24,6.24,0,0,1-2.85-4.94,2.07,2.07,0,0,1,3.35-1.94,6.25,6.25,0,0,1,2.86,4.94,2.3,2.3,0,0,1-1,2.12A1.83,1.83,0,0,1,219.8,224.65Zm-2.33-6.72a.89.89,0,0,0-.43.11,1.38,1.38,0,0,0-.51,1.25,5.3,5.3,0,0,0,2.35,4.07,1.39,1.39,0,0,0,1.34.18,1.37,1.37,0,0,0,.52-1.25,5.27,5.27,0,0,0-2.36-4.07A1.88,1.88,0,0,0,217.47,217.93Z"></path></g><path class="clsx-9" d="M215.31,152.67,145,112.09v73.46a8,8,0,0,0,3.33,6.36l70.29,40.59V159A8,8,0,0,0,215.31,152.67Z"></path><g class="clsx-12"><path class="clsx-13" d="M183.08,136.38l6.87,4c.52.3.94.06.94-.54a2.08,2.08,0,0,0-.94-1.62l-6.87-4c-.52-.3-.94-.05-.94.54A2.08,2.08,0,0,0,183.08,136.38Z"></path><path class="clsx-13" d="M194.59,143l4.58,2.65c.51.29.93.05.93-.55a2.09,2.09,0,0,0-.93-1.62l-4.58-2.64c-.52-.3-.94-.06-.94.54A2.06,2.06,0,0,0,194.59,143Z"></path><path class="clsx-13" d="M190.81,167a2.08,2.08,0,0,0,.94,1.62l4.58,2.64c.52.3.94.06.94-.54a2.08,2.08,0,0,0-.94-1.62l-4.58-2.64C191.23,166.13,190.81,166.37,190.81,167Z"></path><path class="clsx-13" d="M225.17,169.75l4.87,2.81c.52.3.94.06.94-.54a2.06,2.06,0,0,0-.94-1.62l-4.87-2.81c-.51-.3-.93-.06-.93.54A2.09,2.09,0,0,0,225.17,169.75Z"></path><path class="clsx-13" d="M225.17,192.42l4.87,2.81c.52.3.94.06.94-.54a2.08,2.08,0,0,0-.94-1.62l-4.87-2.81c-.51-.3-.93-.06-.93.54A2.08,2.08,0,0,0,225.17,192.42Z"></path><path class="clsx-13" d="M225.17,197l4.87,2.81c.52.3.94.06.94-.54a2.08,2.08,0,0,0-.94-1.63l-4.87-2.81c-.51-.3-.93,0-.93.54A2.1,2.1,0,0,0,225.17,197Z"></path><path class="clsx-13" d="M186.17,150.68a2.08,2.08,0,0,0,.94,1.63l13.79,8c.52.3.94.06.94-.54a2.06,2.06,0,0,0-.94-1.62l-13.79-8C186.59,149.84,186.17,150.09,186.17,150.68Z"></path><path class="clsx-13" d="M187.11,156.84l2.76,1.6c.52.3.94.06.94-.54a2.08,2.08,0,0,0-.94-1.63l-2.76-1.59c-.52-.3-.94-.06-.94.54A2.06,2.06,0,0,0,187.11,156.84Z"></path><path class="clsx-13" d="M187.11,161.38l7.81,4.5c.51.3.93.06.93-.54a2.09,2.09,0,0,0-.93-1.62l-7.81-4.51c-.52-.3-.94-.06-.94.54A2.08,2.08,0,0,0,187.11,161.38Z"></path><path class="clsx-13" d="M197.48,175.35a2.09,2.09,0,0,0-.93-1.62l-9.44-5.45c-.52-.3-.94-.06-.94.54a2,2,0,0,0,.94,1.62l9.44,5.45C197.06,176.19,197.48,176,197.48,175.35Z"></path><path class="clsx-13" d="M206.59,177.16l8.69,5c.51.3.93.06.93-.54a2.09,2.09,0,0,0-.93-1.62l-8.69-5-.75-.43L199.71,171c-.51-.29-.93-.05-.93.55a2.09,2.09,0,0,0,.93,1.62l6.13,3.53Z"></path><path class="clsx-13" d="M187.11,172.82c-.52-.3-.94-.06-.94.54a2.08,2.08,0,0,0,.94,1.62l2.15,1.24c.52.3.94.06.94-.54a2.06,2.06,0,0,0-.94-1.62Z"></path><path class="clsx-13" d="M191.42,179.84l-4.31-2.49c-.52-.3-.94-.06-.94.54a2.06,2.06,0,0,0,.94,1.62l4.31,2.49c.51.3.93.06.93-.54A2.08,2.08,0,0,0,191.42,179.84Z"></path><path class="clsx-13" d="M212.08,187.24,210,186l-.59-.34-7.22-4.17c-.52-.3-.94-.05-.94.54a2.08,2.08,0,0,0,.94,1.63l7.22,4.16.59.35,2.08,1.2c.52.3.94.06.94-.54A2.06,2.06,0,0,0,212.08,187.24Z"></path><path class="clsx-13" d="M218.33,190.84l-2.67-1.54c-.52-.3-.94-.06-.94.54a2.06,2.06,0,0,0,.94,1.62l2.67,1.55c.52.3.94.05.94-.54A2.08,2.08,0,0,0,218.33,190.84Z"></path><path class="clsx-13" d="M232.4,162.69l-17.09-9.87c-.52-.3-.94-.06-.94.54a2.08,2.08,0,0,0,.94,1.63l17.09,9.86c.52.3.94.06.94-.54A2.08,2.08,0,0,0,232.4,162.69Z"></path></g><path class="clsx-8" d="M183.08,140.91l2.76,1.6c.52.3.94.06.94-.54a2.08,2.08,0,0,0-.94-1.63l-2.76-1.59c-.52-.3-.94-.06-.94.54A2.06,2.06,0,0,0,183.08,140.91Z"></path><path class="clsx-8" d="M198.62,179.46,192.53,176c-.52-.3-.94-.06-.94.54a2.08,2.08,0,0,0,.94,1.62l6.09,3.52c.52.3.94.05.94-.54A2.08,2.08,0,0,0,198.62,179.46Z"></path><path class="clsx-8" d="M202,164.38a2,2,0,0,0-.94-1.62l-7.81-4.51c-.52-.3-.94-.06-.94.54a2.06,2.06,0,0,0,.94,1.62l7.81,4.51C201.62,165.22,202,165,202,164.38Z"></path><path class="clsx-7" d="M203.8,148.34l6.87,4c.52.3.94.06.94-.54a2,2,0,0,0-.94-1.62l-6.87-4c-.52-.3-.94-.06-.94.54A2.06,2.06,0,0,0,203.8,148.34Z"></path><path class="clsx-7" d="M187.11,147.77l9,5.18c.51.3.93.06.93-.54a2.08,2.08,0,0,0-.93-1.62l-9-5.18c-.52-.3-.94-.06-.94.54A2.06,2.06,0,0,0,187.11,147.77Z"></path><path class="clsx-7" d="M225.17,201.49,230,204.3c.52.3.94.06.94-.54a2.06,2.06,0,0,0-.94-1.62l-4.87-2.81c-.51-.3-.93-.06-.93.54A2.08,2.08,0,0,0,225.17,201.49Z"></path><path class="clsx-7" d="M187.11,165.91l1.68,1c.52.3.94.06.94-.54a2.08,2.08,0,0,0-.94-1.62l-1.68-1c-.52-.3-.94-.06-.94.54A2.08,2.08,0,0,0,187.11,165.91Z"></path><path class="clsx-7" d="M207.21,166.29l-.46-.27-2.21-1.28c-.52-.3-.94-.06-.94.54a2,2,0,0,0,.94,1.62l2.21,1.29.46.26,2.22,1.28c.52.3.94.06.94-.54a2.06,2.06,0,0,0-.94-1.62Z"></path><path class="clsx-7" d="M191.08,184.18l-8-4.62c-.52-.3-.94-.06-.94.54a2.06,2.06,0,0,0,.94,1.62l8,4.62c.51.3.93.06.93-.54A2.08,2.08,0,0,0,191.08,184.18Z"></path><path class="clsx-14" d="M195.88,161.51l-126-72.76a2.09,2.09,0,0,0-2.19-.15v0l-3.6,2.1,2.46,1v104a8,8,0,0,0,3.33,6.35L195,274.31l-.6,2.84,3.6-2.1h0a2.82,2.82,0,0,0,1.25-2.72V167.86A8,8,0,0,0,195.88,161.51Z"></path><path class="clsx-15" d="M192.15,277l-126-72.75a8,8,0,0,1-3.32-6.36V93.43c0-2.45,1.49-3.57,3.32-2.51l126,72.76a8,8,0,0,1,3.32,6.35V274.49C195.47,276.94,194,278.06,192.15,277Z"></path><path class="clsx-9 none" d="M167.09,240.08l-76.3-44.16a8,8,0,0,1-3.32-6.36V129.08c0-2.45,1.49-3.58,3.32-2.52l76.3,44.17a7.94,7.94,0,0,1,3.32,6.35v60.49C170.41,240,168.93,241.14,167.09,240.08Z"></path><path class="clsx-16" d="M161.77,243.52l-76.3-44.17A8,8,0,0,1,82.15,193V132.51c0-2.45,1.49-3.57,3.32-2.51l76.3,44.16a8,8,0,0,1,3.32,6.36V241C165.09,243.45,163.6,244.58,161.77,243.52Z"></path><path class="clsx-6" d="M192.15,163.68l-126-72.76a1.94,1.94,0,0,0-2.67.27,2.59,2.59,0,0,1,1.39.39l126,72.76a8,8,0,0,1,3.33,6.35V275.15a3.56,3.56,0,0,1-.65,2.24c1.14-.05,1.93-1.12,1.93-2.9V170A8,8,0,0,0,192.15,163.68Z"></path><path class="clsx-7" d="M111.4,192.54a.51.51,0,0,1-.4-.2L94.93,170.72a.51.51,0,0,1-.07-.48.54.54,0,0,1,.38-.31l16.07-3.05a.48.48,0,0,1,.58.39.5.5,0,0,1-.4.59l-15.28,2.91,15.59,21a.5.5,0,0,1-.1.7A.49.49,0,0,1,111.4,192.54Z"></path><path class="clsx-7" d="M135.84,206.65a.5.5,0,0,1-.09-1L151,202.75l-15.59-21a.5.5,0,0,1,.8-.6l16.07,21.61a.5.5,0,0,1-.31.79l-16.07,3.06Z"></path><path class="clsx-7" d="M115.07,192.15a.5.5,0,0,1-.25-.93l17-9.83a.49.49,0,0,1,.68.18.51.51,0,0,1-.18.69l-17,9.82A.45.45,0,0,1,115.07,192.15Z"></path><ellipse class="clsx-1 none" cx="236.38" cy="305.72" rx="30.62" ry="17.68"></ellipse><path class="clsx-17" d="M226.2,292.74s-.66.7-1.35,1.52a19.19,19.19,0,0,1-3.46,2.46c-.81.51-4.56,3.35-5.34,6.14s1.89,3.16,4.63,2.68,5.29-3,6-3.92a25.48,25.48,0,0,1,6.69-4.72c3.36-1.74,1.33-4.08,1.33-4.08Z"></path><path class="clsx-18" d="M251.13,301a10.37,10.37,0,0,1,.72,2.87c.15,1.62.38,5.12.46,6.15a8.64,8.64,0,0,1-1.68,5.93c-1.81,2.4-2.74,3.35-5.14,2.4s-2.34-5-1.91-7a58.64,58.64,0,0,0,.77-7.19,1.45,1.45,0,0,1,.14-.79Z"></path><path class="clsx-1 none" d="M226.2,292.74s-.66.7-1.35,1.52a19.19,19.19,0,0,1-3.46,2.46c-.81.51-4.56,3.35-5.34,6.14s1.89,3.16,4.63,2.68,5.29-3,6-3.92a25.48,25.48,0,0,1,6.69-4.72c3.36-1.74,1.33-4.08,1.33-4.08Z"></path><path class="clsx-1 none" d="M251.13,301a10.37,10.37,0,0,1,.72,2.87c.15,1.62.38,5.12.46,6.15a8.64,8.64,0,0,1-1.68,5.93c-1.81,2.4-2.74,3.35-5.14,2.4s-2.34-5-1.91-7a58.64,58.64,0,0,0,.77-7.19,1.45,1.45,0,0,1,.14-.79Z"></path><path class="clsx-19" d="M217.93,245.27s.51,18.45,4.81,28.25a71,71,0,0,1,3.48,18.88,3.68,3.68,0,0,0,.3,3.21c1,1.43,7.32,2.75,8.37-2s.64-13.55-.51-17.23.41-13.83.41-13.83,1.72,1.11,4,8.4a94.33,94.33,0,0,0,4.7,12.08c.78,2,1.49,14.37,1,20.4,0,0,5.11.72,6.59-1.72s2-15.08,1.6-19.11-2.06-16.94-1.83-20.94,1.06-7.24.15-11.23-27.89-12.85-27.89-12.85Z"></path><path class="clsx-1 none" d="M250.84,261.69c.23-4,1.06-7.24.15-11.23-.34-1.5-4.37-3.69-9.26-5.84-8.26-.75-18.73-1.62-19.45-1.51a25.37,25.37,0,0,0-3.77,1.31l-.58.85s0,1.13.14,3c1.93.57,5.63,0,5.63,0a20,20,0,0,0,7.74,7.88c4,2,15.71,1.31,16.38,2.06s.81,10.86.73,12.14,1.1,9.37,2.19,16.52-.56,15.58-.61,15.86a2.88,2.88,0,0,0,.94-.93c1.48-2.44,2-15.08,1.6-19.11S250.61,265.69,250.84,261.69Z"></path><path class="clsx-20" d="M227,184.93s-6,1.36-8,1.84a1.05,1.05,0,0,0-.73.63,24.56,24.56,0,0,0-.94,12.72,63.58,63.58,0,0,1,.93,13.72l-2.77,14.41S212,242,212.27,242.35s8,6.24,10.42,5.41,1.62-2.19,1.62-2.19,1.95,10,10.6,9.85,15.7-.07,17.17-3.56-.4-18.18-1.93-24-5.14-17.4-5.14-17.4l12.65-14-10.81-8.27s-2.59-4.8-3.65-5.41-1.62-.09-1.62-.09Z"></path><path class="clsx-21" d="M243,182.65s2.21,2.67-1,6.28a87.11,87.11,0,0,0-8.19,12c-1.79,3.11-3.45,4.77-4.39,7.44,0,0-.13-3.18-.26-8.07-.11-4.63-.18-9.43,0-10.64C229.61,187.16,240.52,181.44,243,182.65Z"></path><path class="clsx-22" d="M234.7,190.69s-1.13.71-1.52.65a7.51,7.51,0,0,1-1.65-1.28s-3.14-.05-3.48-1.4a30.77,30.77,0,0,0-.88-3.4c-.32-.69-1.68-4-1.69-5.41s.05-3.79-.54-5.08S223.56,160.61,236,161s8.57,13.28,8.57,13.28.91.38.36,2.05-.67,1.83-.95,2.65a3.67,3.67,0,0,1-1.21,2l-.21,1.53a6.16,6.16,0,0,1-1,4.61C240.05,189.39,234.7,190.69,234.7,190.69Z"></path><path class="clsx-23" d="M218.62,186.92s-1.32.19-5.63,11c-2.4,6-6.1,12.29-6.89,16.78s-.34,9.28.54,9.62l21.15,7.93a.45.45,0,0,0,.61-.34l1.33-7.47-9.59-3.71a13.87,13.87,0,0,0-3.54-3.07s1.92-3.54,1.8-4.51.17-11-1-15S218.62,186.92,218.62,186.92Z"></path><path class="clsx-22" d="M224.24,215.52s-1.32-.89-1.65-1-2.09-.73-2.43-.88a6.81,6.81,0,0,0-1.79,0,.55.55,0,0,0-.44.29c-.41.76-1.55,3-1.42,3.8,0,0,3.19,2,3.55,2.92l.51.11S222.71,216.18,224.24,215.52Z"></path><path class="clsx-1 none" d="M250.15,227.86c-.36-1.4-.85-3.13-1.38-5l-19.43,8.33a20.5,20.5,0,0,0,16,6.69,13.38,13.38,0,0,0,6.31-2A77.89,77.89,0,0,0,250.15,227.86Z"></path><path class="clsx-24" d="M257.66,196.45s-5.12.7-9.26,7.26a98.75,98.75,0,0,0-7.15,14.15l-.15.86a3.44,3.44,0,0,1-4.81,2.58c-4.37-2-10.84-4.9-12-5.78a11.15,11.15,0,0,0-4.93,7.19c-.84,4-.63,4-.63,4s17.25,8.06,23.92,8,15.11-22,16-26.51S260.6,197.72,257.66,196.45Z"></path><path class="clsx-22" d="M236.14,221.24s.6-.56,1.37-1.21,2-3.36,2.23-3.6,2.81-2.23,4.07-2.27.32,1.37,0,1.57-1.51.81-1.51.81-1.26,1.06-1.41,1.21,3.51-.25,4.09.11a1,1,0,0,1,0,1.54,1.43,1.43,0,0,1-.72.24,1.27,1.27,0,0,1-.68,1.61c-1.1.51-1.35.23-1.35.23a1.54,1.54,0,0,1-1.9,1.52Z"></path><path class="clsx-25" d="M224.66,168.19s-1.63,5.17,2.65,3.7,8.13-3.93,9.48-3c1,.72,1,2.9.89,3.91a1.43,1.43,0,0,0,.26,1l1.26,1.84a1.48,1.48,0,0,1,.25.7l.09,1.28a.65.65,0,0,0,.6.6h.29a.63.63,0,0,0,.67-.53l.33-1.88s1-2.53,3.13-1.53c0,0,1.43-1.91.95-6s-2.3-8.33-10.31-9S224.66,168.19,224.66,168.19Z"></path><path class="clsx-26" d="M236.9,195.24l-1.19-.93a6.53,6.53,0,0,0-1.55,1.9c-.43,1,0,4.08,0,4.08l-.37.63-.45-.82-.38-3.67s.41-2.72.45-2.79,2.31.24,2.31.24A4.76,4.76,0,0,1,236.9,195.24Z"></path><path class="clsx-26" d="M231.14,191.59a4.06,4.06,0,0,0-1.86.56l1.56.09C231.05,192.27,231.14,191.59,231.14,191.59Z"></path><path class="clsx-27" d="M235.73,193.88l-2.15-2s-3.37-.73-3.09.22.06,3.08.27,3.93a.37.37,0,0,0,.05.11,10.76,10.76,0,0,1-.8,2.33c-.43.73-.88,1.54-.88,1.54l.05,10.32s3.8-7.82,4.62-9.41a24.52,24.52,0,0,0-.48-4.48A4.86,4.86,0,0,1,235.73,193.88Z"></path><path class="clsx-28" d="M241,180.74a15.7,15.7,0,0,1-9.51,9.32,7.51,7.51,0,0,0,1.65,1.28c.39.06,1.52-.65,1.52-.65s5.35-1.3,6.9-3.57a6.16,6.16,0,0,0,1-4.61l.21-1.53A1.71,1.71,0,0,1,241,180.74Z"></path><path class="clsx-1 none" d="M246.74,189.15s-1,3.4-1.11,3.53a14.84,14.84,0,0,1-2.47-.15l1.14,2.16S232.49,207.35,230,214.16a144.89,144.89,0,0,1,15.42-18.94l-1.39-2.1,2.41.47Z"></path><path class="clsx-1 none" d="M227.35,186.16l-.63.71.74.69-2.18,2s-.67,13.85,2,23c0,0-3.61-8.41-2.79-23.39l2.36-1.61-.77-.76Z"></path><path class="clsx-1 none" d="M234.79,262.58l.08.07-3.06-3.26c1.41,2-.21,11.11-.38,13.2s1.63,6.39,2.31,11.44S233,296.28,233,296.3a3.92,3.92,0,0,0,1.86-2.66c1-4.72.64-13.55-.51-17.23S234.79,262.58,234.79,262.58Z"></path><path class="clsx-29" d="M240.43,178.19a.63.63,0,0,0,.67-.53l.33-1.88s1-2.53,3.13-1.53c0,0,1.34-1.82,1-5.68-2.36,3.55-7.6,5.19-7.6,5.19l1.26,1.84a1.48,1.48,0,0,1,.25.7l.09,1.28a.65.65,0,0,0,.6.6Z"></path></g></g></svg>